Chivo-Black Italic.ufo
<glyph name="quotedbl" format="1">
  <advance width="433"/>
  <unicode hex="0022"/>
  <outline>
    <contour>
      <point x="295" y="686" type="line"/>
      <point x="274" y="539" type="line"/>
      <point x="301" y="396" type="line"/>
      <point x="361" y="396" type="line"/>
      <point x="429" y="539" type="line"/>
      <point x="450" y="686" type="line"/>
    </contour>
    <contour>
      <point x="92" y="686" type="line"/>
      <point x="71" y="539" type="line"/>
      <point x="98" y="396" type="line"/>
      <point x="159" y="396" type="line"/>
      <point x="226" y="539" type="line"/>
      <point x="247" y="686" type="line"/>
    </contour>
  </outline>
</glyph>
<glyph name="dollar" format="1">
  <advance width="608"/>
  <unicode hex="0024"/>
  <outline>
    <contour>
      <point x="291" y="757" type="line"/>
      <point x="294" y="671" type="line"/>
      <point x="152" y="660"/>
      <point x="63" y="570"/>
      <point x="63" y="461" type="curve" smooth="yes"/>
      <point x="63" y="246"/>
      <point x="360" y="291"/>
      <point x="360" y="213" type="curve" smooth="yes"/>
      <point x="360" y="192"/>
      <point x="346" y="169"/>
      <point x="269" y="169" type="curve" smooth="yes"/>
      <point x="210" y="169"/>
      <point x="193" y="194"/>
      <point x="193" y="223" type="curve" smooth="yes"/>
      <point x="193" y="226"/>
      <point x="194" y="231"/>
      <point x="195" y="238" type="curve" smooth="yes"/>
      <point x="197" y="246" type="line"/>
      <point x="22" y="246" type="line"/>
      <point x="15" y="230"/>
      <point x="16" y="209"/>
      <point x="16" y="194" type="curve" smooth="yes"/>
      <point x="16" y="90"/>
      <point x="98" y="33"/>
      <point x="203" y="22" type="curve"/>
      <point x="176" y="-66" type="line"/>
      <point x="304" y="-66" type="line"/>
      <point x="301" y="21" type="line"/>
      <point x="430" y="21"/>
      <point x="562" y="63"/>
      <point x="562" y="252" type="curve" smooth="yes"/>
      <point x="562" y="452"/>
      <point x="260" y="410"/>
      <point x="260" y="490" type="curve" smooth="yes"/>
      <point x="260" y="515"/>
      <point x="285" y="534"/>
      <point x="341" y="534" type="curve" smooth="yes"/>
      <point x="389" y="534"/>
      <point x="408" y="510"/>
      <point x="408" y="483" type="curve" smooth="yes"/>
      <point x="408" y="482"/>
      <point x="407" y="478"/>
      <point x="407" y="475" type="curve" smooth="yes"/>
      <point x="407" y="469" type="line"/>
      <point x="580" y="469" type="line"/>
      <point x="582" y="487"/>
      <point x="583" y="501"/>
      <point x="583" y="511" type="curve" smooth="yes"/>
      <point x="583" y="612"/>
      <point x="501" y="666"/>
      <point x="393" y="674" type="curve"/>
      <point x="419" y="757" type="line"/>
    </contour>
  </outline>
</glyph>
<glyph name="percent" format="1">
  <advance width="715"/>
  <unicode hex="0025"/>
  <outline>
    <contour>
      <point x="576" y="686" type="line"/>
      <point x="60" y="0" type="line"/>
      <point x="155" y="0" type="line"/>
      <point x="669" y="686" type="line"/>
    </contour>
    <contour>
      <point x="227" y="614"/>
      <point x="239" y="600"/>
      <point x="239" y="581" type="curve"/>
      <point x="238" y="574"/>
      <point x="235" y="542"/>
      <point x="230" y="510" type="curve" smooth="yes"/>
      <point x="221" y="448" type="line" smooth="yes"/>
      <point x="218" y="425"/>
      <point x="200" y="409"/>
      <point x="179" y="409" type="curve" smooth="yes"/>
      <point x="160" y="409"/>
      <point x="146" y="423"/>
      <point x="146" y="442" type="curve" smooth="yes"/>
      <point x="146" y="445"/>
      <point x="146" y="447"/>
      <point x="165" y="575" type="curve" smooth="yes"/>
      <point x="168" y="598"/>
      <point x="188" y="614"/>
      <point x="208" y="614" type="curve" smooth="yes"/>
    </contour>
    <contour>
      <point x="207" y="685" type="line" smooth="yes"/>
      <point x="129" y="685"/>
      <point x="75" y="630"/>
      <point x="66" y="562" type="curve" smooth="yes"/>
      <point x="52" y="460" type="line"/>
      <point x="51" y="457"/>
      <point x="51" y="454"/>
      <point x="51" y="451" type="curve" smooth="yes"/>
      <point x="51" y="442" type="line" smooth="yes"/>
      <point x="51" y="382"/>
      <point x="95" y="337"/>
      <point x="158" y="337" type="curve" smooth="yes"/>
      <point x="180" y="337" type="line" smooth="yes"/>
      <point x="260" y="337"/>
      <point x="310" y="392"/>
      <point x="321" y="460" type="curve"/>
      <point x="335" y="562" type="line"/>
      <point x="336" y="565"/>
      <point x="336" y="568"/>
      <point x="336" y="571" type="curve" smooth="yes"/>
      <point x="336" y="580" type="line" smooth="yes"/>
      <point x="336" y="640"/>
      <point x="292" y="685"/>
      <point x="229" y="685" type="curve" smooth="yes"/>
    </contour>
    <contour>
      <point x="570" y="276"/>
      <point x="582" y="262"/>
      <point x="582" y="243" type="curve"/>
      <point x="581" y="236"/>
      <point x="578" y="204"/>
      <point x="573" y="172" type="curve" smooth="yes"/>
      <point x="564" y="110" type="line" smooth="yes"/>
      <point x="561" y="87"/>
      <point x="543" y="71"/>
      <point x="522" y="71" type="curve" smooth="yes"/>
      <point x="503" y="71"/>
      <point x="489" y="85"/>
      <point x="489" y="104" type="curve" smooth="yes"/>
      <point x="489" y="107"/>
      <point x="489" y="109"/>
      <point x="508" y="237" type="curve" smooth="yes"/>
      <point x="511" y="260"/>
      <point x="531" y="276"/>
      <point x="551" y="276" type="curve" smooth="yes"/>
    </contour>
    <contour>
      <point x="550" y="347" type="line" smooth="yes"/>
      <point x="472" y="347"/>
      <point x="418" y="292"/>
      <point x="409" y="224" type="curve" smooth="yes"/>
      <point x="395" y="122" type="line"/>
      <point x="394" y="119"/>
      <point x="394" y="116"/>
      <point x="394" y="113" type="curve" smooth="yes"/>
      <point x="394" y="104" type="line" smooth="yes"/>
      <point x="394" y="44"/>
      <point x="438" y="-1"/>
      <point x="501" y="-1" type="curve" smooth="yes"/>
      <point x="523" y="-1" type="line" smooth="yes"/>
      <point x="603" y="-1"/>
      <point x="653" y="54"/>
      <point x="664" y="122" type="curve"/>
      <point x="678" y="224" type="line"/>
      <point x="679" y="227"/>
      <point x="679" y="230"/>
      <point x="679" y="233" type="curve" smooth="yes"/>
      <point x="679" y="242" type="line" smooth="yes"/>
      <point x="679" y="302"/>
      <point x="635" y="347"/>
      <point x="572" y="347" type="curve" smooth="yes"/>
    </contour>
  </outline>
</glyph>
<glyph name="quotesingle" format="1">
  <advance width="230"/>
  <unicode hex="0027"/>
  <outline>
    <contour>
      <point x="92" y="686" type="line"/>
      <point x="71" y="539" type="line"/>
      <point x="98" y="396" type="line"/>
      <point x="159" y="396" type="line"/>
      <point x="226" y="539" type="line"/>
      <point x="247" y="686" type="line"/>
    </contour>
  </outline>
</glyph>
<glyph name="parenleft" format="1">
  <advance width="311"/>
  <unicode hex="0028"/>
  <outline>
    <contour>
      <point x="244" y="686" type="line"/>
      <point x="103" y="548"/>
      <point x="19" y="359"/>
      <point x="19" y="174" type="curve" smooth="yes"/>
      <point x="19" y="50"/>
      <point x="56" y="-65"/>
      <point x="125" y="-158" type="curve"/>
      <point x="233" y="-158" type="line"/>
      <point x="194" y="-70"/>
      <point x="175" y="47"/>
      <point x="175" y="158" type="curve" smooth="yes"/>
      <point x="175" y="340"/>
      <point x="242" y="528"/>
      <point x="352" y="686" type="curve"/>
    </contour>
  </outline>
</glyph>
<glyph name="parenright" format="1">
  <advance width="312"/>
  <unicode hex="0029"/>
  <outline>
    <contour>
      <point x="71" y="686" type="line"/>
      <point x="108" y="598"/>
      <point x="129" y="479"/>
      <point x="129" y="368" type="curve" smooth="yes"/>
      <point x="129" y="187"/>
      <point x="60" y="-5"/>
      <point x="-48" y="-158" type="curve"/>
      <point x="60" y="-158" type="line"/>
      <point x="200" y="-20"/>
      <point x="285" y="165"/>
      <point x="285" y="351" type="curve" smooth="yes"/>
      <point x="285" y="476"/>
      <point x="250" y="591"/>
      <point x="179" y="686" type="curve"/>
    </contour>
  </outline>
</glyph>
<glyph name="comma" format="1">
  <advance width="286"/>
  <unicode hex="002C"/>
  <outline>
    <contour>
      <point x="33" y="183" type="line"/>
      <point x="7" y="0" type="line"/>
      <point x="91" y="0" type="line"/>
      <point x="31" y="-165" type="line"/>
      <point x="125" y="-165" type="line"/>
      <point x="201" y="22" type="line"/>
      <point x="224" y="183" type="line"/>
    </contour>
  </outline>
</glyph>
<glyph name="period" format="1">
  <advance width="287"/>
  <unicode hex="002E"/>
  <outline>
    <contour>
      <point x="33" y="183" type="line"/>
      <point x="8" y="0" type="line"/>
      <point x="199" y="0" type="line"/>
      <point x="224" y="183" type="line"/>
    </contour>
  </outline>
</glyph>
<glyph name="zero" format="1">
  <advance width="615"/>
  <unicode hex="0030"/>
  <outline>
    <contour>
      <point x="342" y="696" type="line" smooth="yes"/>
      <point x="203" y="696"/>
      <point x="78" y="598"/>
      <point x="57" y="446" type="curve" smooth="yes"/>
      <point x="28" y="240" type="line" smooth="yes"/>
      <point x="26" y="228"/>
      <point x="25" y="216"/>
      <point x="25" y="205" type="curve" smooth="yes"/>
      <point x="25" y="84"/>
      <point x="118" y="-10"/>
      <point x="243" y="-10" type="curve" smooth="yes"/>
      <point x="288" y="-10" type="line" smooth="yes"/>
      <point x="447" y="-10"/>
      <point x="553" y="101"/>
      <point x="573" y="240" type="curve" smooth="yes"/>
      <point x="602" y="446" type="line" smooth="yes"/>
      <point x="604" y="459"/>
      <point x="603" y="469"/>
      <point x="604" y="480" type="curve"/>
      <point x="604" y="603"/>
      <point x="513" y="696"/>
      <point x="387" y="696" type="curve" smooth="yes"/>
    </contour>
    <contour>
      <point x="382" y="552"/>
      <point x="409" y="523"/>
      <point x="409" y="484" type="curve"/>
      <point x="372" y="215" type="line" smooth="yes"/>
      <point x="366" y="171"/>
      <point x="337" y="135"/>
      <point x="285" y="135" type="curve" smooth="yes"/>
      <point x="248" y="135"/>
      <point x="222" y="163"/>
      <point x="222" y="202" type="curve" smooth="yes"/>
      <point x="222" y="207"/>
      <point x="222" y="212"/>
      <point x="223" y="215" type="curve"/>
      <point x="259" y="472" type="line" smooth="yes"/>
      <point x="267" y="529"/>
      <point x="302" y="552"/>
      <point x="345" y="552" type="curve" smooth="yes"/>
    </contour>
  </outline>
</glyph>
<glyph name="one" format="1">
  <advance width="615"/>
  <unicode hex="0031"/>
  <outline>
    <contour>
      <point x="411" y="696" type="line"/>
      <point x="331" y="645"/>
      <point x="205" y="593"/>
      <point x="115" y="588" type="curve"/>
      <point x="99" y="473" type="line"/>
      <point x="251" y="473" type="line"/>
      <point x="206" y="153" type="line"/>
      <point x="54" y="153" type="line"/>
      <point x="33" y="0" type="line"/>
      <point x="527" y="0" type="line"/>
      <point x="548" y="153" type="line"/>
      <point x="402" y="153" type="line"/>
      <point x="478" y="696" type="line"/>
    </contour>
  </outline>
</glyph>
<glyph name="four" format="1">
  <advance width="615"/>
  <unicode hex="0034"/>
  <outline>
    <contour>
      <point x="234" y="696" type="line"/>
      <point x="202" y="599"/>
      <point x="83" y="388"/>
      <point x="23" y="300" type="curve"/>
      <point x="3" y="151" type="line"/>
      <point x="282" y="151" type="line"/>
      <point x="261" y="0" type="line"/>
      <point x="449" y="0" type="line"/>
      <point x="470" y="151" type="line"/>
      <point x="568" y="151" type="line"/>
      <point x="588" y="298" type="line"/>
      <point x="490" y="298" type="line"/>
      <point x="537" y="630" type="line"/>
      <point x="454" y="630" type="line"/>
      <point x="432" y="573"/>
      <point x="358" y="449"/>
      <point x="317" y="400" type="curve"/>
      <point x="302" y="298" type="line"/>
      <point x="152" y="298" type="line"/>
      <point x="235" y="381"/>
      <point x="383" y="591"/>
      <point x="411" y="696" type="curve"/>
    </contour>
  </outline>
</glyph>
<glyph name="five" format="1">
  <advance width="615"/>
  <unicode hex="0035"/>
  <outline>
    <contour>
      <point x="143" y="686" type="line"/>
      <point x="61" y="303" type="line"/>
      <point x="215" y="281" type="line"/>
      <point x="229" y="289"/>
      <point x="248" y="315"/>
      <point x="291" y="315" type="curve" smooth="yes"/>
      <point x="305" y="315" type="line" smooth="yes"/>
      <point x="345" y="315"/>
      <point x="375" y="285"/>
      <point x="375" y="246" type="curve" smooth="yes"/>
      <point x="375" y="179"/>
      <point x="325" y="144"/>
      <point x="281" y="144" type="curve" smooth="yes"/>
      <point x="264" y="144" type="line" smooth="yes"/>
      <point x="224" y="144"/>
      <point x="194" y="174"/>
      <point x="194" y="213" type="curve" smooth="yes"/>
      <point x="194" y="218"/>
      <point x="194" y="221"/>
      <point x="195" y="224" type="curve"/>
      <point x="19" y="224" type="line"/>
      <point x="18" y="219"/>
      <point x="17" y="213"/>
      <point x="17" y="208" type="curve" smooth="yes"/>
      <point x="17" y="191" type="line" smooth="yes"/>
      <point x="17" y="77"/>
      <point x="99" y="-10"/>
      <point x="247" y="-10" type="curve" smooth="yes"/>
      <point x="277" y="-10" type="line" smooth="yes"/>
      <point x="441" y="-10"/>
      <point x="573" y="105"/>
      <point x="573" y="269" type="curve" smooth="yes"/>
      <point x="573" y="389"/>
      <point x="500" y="459"/>
      <point x="380" y="459" type="curve" smooth="yes"/>
      <point x="314" y="459"/>
      <point x="271" y="432"/>
      <point x="246" y="414" type="curve"/>
      <point x="269" y="516" type="line"/>
      <point x="560" y="516" type="line"/>
      <point x="583" y="686" type="line"/>
    </contour>
  </outline>
</glyph>
<glyph name="nine" format="1">
  <advance width="615"/>
  <unicode hex="0039"/>
  <outline>
    <contour>
      <point x="345" y="696" type="line" smooth="yes"/>
      <point x="192" y="696"/>
      <point x="50" y="584"/>
      <point x="50" y="421" type="curve" smooth="yes"/>
      <point x="50" y="307"/>
      <point x="135" y="249"/>
      <point x="248" y="249" type="curve" smooth="yes"/>
      <point x="285" y="249"/>
      <point x="340" y="264"/>
      <point x="381" y="301" type="curve"/>
      <point x="369" y="215" type="line"/>
      <point x="362" y="174"/>
      <point x="333" y="140"/>
      <point x="281" y="140" type="curve" smooth="yes"/>
      <point x="275" y="140" type="line" smooth="yes"/>
      <point x="240" y="140"/>
      <point x="214" y="168"/>
      <point x="214" y="200" type="curve" smooth="yes"/>
      <point x="214" y="212" type="line" smooth="yes"/>
      <point x="214" y="215"/>
      <point x="214" y="217"/>
      <point x="215" y="220" type="curve"/>
      <point x="37" y="220" type="line"/>
      <point x="35" y="206"/>
      <point x="34" y="193"/>
      <point x="34" y="181" type="curve" smooth="yes"/>
      <point x="34" y="54"/>
      <point x="128" y="-10"/>
      <point x="246" y="-10" type="curve" smooth="yes"/>
      <point x="274" y="-10" type="line" smooth="yes"/>
      <point x="433" y="-10"/>
      <point x="548" y="96"/>
      <point x="569" y="240" type="curve" smooth="yes"/>
      <point x="601" y="458"/>
      <point x="600" y="470"/>
      <point x="600" y="482" type="curve" smooth="yes"/>
      <point x="600" y="606"/>
      <point x="505" y="696"/>
      <point x="373" y="696" type="curve" smooth="yes"/>
    </contour>
    <contour>
      <point x="378" y="556"/>
      <point x="407" y="528"/>
      <point x="407" y="491" type="curve"/>
      <point x="400" y="440" type="line" smooth="yes"/>
      <point x="394" y="399"/>
      <point x="355" y="365"/>
      <point x="315" y="365" type="curve" smooth="yes"/>
      <point x="309" y="365" type="line" smooth="yes"/>
      <point x="270" y="365"/>
      <point x="243" y="393"/>
      <point x="243" y="429" type="curve" smooth="yes"/>
      <point x="243" y="434"/>
      <point x="245" y="446"/>
      <point x="245" y="447" type="curve"/>
      <point x="250" y="481" type="line" smooth="yes"/>
      <point x="256" y="522"/>
      <point x="295" y="556"/>
      <point x="335" y="556" type="curve" smooth="yes"/>
      <point x="341" y="556" type="line" smooth="yes"/>
    </contour>
  </outline>
</glyph>
<glyph name="semicolon" format="1">
  <advance width="307"/>
  <unicode hex="003B"/>
  <outline>
    <contour>
      <point x="43" y="183" type="line"/>
      <point x="17" y="0" type="line"/>
      <point x="101" y="0" type="line"/>
      <point x="41" y="-165" type="line"/>
      <point x="135" y="-165" type="line"/>
      <point x="211" y="22" type="line"/>
      <point x="234" y="183" type="line"/>
    </contour>
    <contour>
      <point x="89" y="511" type="line"/>
      <point x="63" y="328" type="line"/>
      <point x="254" y="328" type="line"/>
      <point x="280" y="511" type="line"/>
    </contour>
  </outline>
</glyph>
<glyph name="greater" format="1">
  <advance width="615"/>
  <unicode hex="003E"/>
  <outline>
    <contour>
      <point x="74" y="382" type="line"/>
      <point x="404" y="254" type="line"/>
      <point x="39" y="127" type="line"/>
      <point x="19" y="-11" type="line"/>
      <point x="556" y="185" type="line"/>
      <point x="575" y="324" type="line"/>
      <point x="94" y="521" type="line"/>
    </contour>
  </outline>
</glyph>
<glyph name="at" format="1">
  <advance width="907"/>
  <unicode hex="0040"/>
  <outline>
    <contour>
      <point x="291" y="697"/>
      <point x="75" y="579"/>
      <point x="30" y="262" type="curve" smooth="yes"/>
      <point x="25" y="227"/>
      <point x="23" y="198"/>
      <point x="23" y="167" type="curve" smooth="yes"/>
      <point x="23" y="-54"/>
      <point x="154" y="-153"/>
      <point x="372" y="-153" type="curve" smooth="yes"/>
      <point x="415" y="-153"/>
      <point x="496" y="-142"/>
      <point x="541" y="-126" type="curve"/>
      <point x="550" y="-60" type="line"/>
      <point x="512" y="-78"/>
      <point x="426" y="-92"/>
      <point x="380" y="-92" type="curve" smooth="yes"/>
      <point x="185" y="-92"/>
      <point x="96" y="-4"/>
      <point x="96" y="172" type="curve" smooth="yes"/>
      <point x="96" y="485"/>
      <point x="277" y="636"/>
      <point x="517" y="636" type="curve" smooth="yes"/>
      <point x="696" y="636"/>
      <point x="815" y="562"/>
      <point x="815" y="386" type="curve" smooth="yes"/>
      <point x="815" y="237"/>
      <point x="761" y="136"/>
      <point x="712" y="136" type="curve" smooth="yes"/>
      <point x="697" y="136"/>
      <point x="684" y="146"/>
      <point x="684" y="171" type="curve"/>
      <point x="712" y="369" type="line" smooth="yes"/>
      <point x="713" y="372"/>
      <point x="713" y="376"/>
      <point x="713" y="379" type="curve" smooth="yes"/>
      <point x="713" y="389" type="line" smooth="yes"/>
      <point x="713" y="465"/>
      <point x="649" y="521"/>
      <point x="509" y="521" type="curve" smooth="yes"/>
      <point x="478" y="521" type="line" smooth="yes"/>
      <point x="332" y="521"/>
      <point x="232" y="449"/>
      <point x="232" y="364" type="curve"/>
      <point x="410" y="364" type="line"/>
      <point x="411" y="368" type="line" smooth="yes"/>
      <point x="414" y="395"/>
      <point x="451" y="412"/>
      <point x="477" y="412" type="curve" smooth="yes"/>
      <point x="508" y="412"/>
      <point x="531" y="397"/>
      <point x="531" y="366" type="curve" smooth="yes"/>
      <point x="531" y="359"/>
      <point x="530" y="351"/>
      <point x="529" y="343" type="curve" smooth="yes"/>
      <point x="527" y="329" type="line"/>
      <point x="327" y="329"/>
      <point x="187" y="297"/>
      <point x="187" y="149" type="curve" smooth="yes"/>
      <point x="187" y="53"/>
      <point x="263" y="23"/>
      <point x="339" y="23" type="curve" smooth="yes"/>
      <point x="416" y="23"/>
      <point x="466" y="61"/>
      <point x="504" y="99" type="curve"/>
      <point x="515" y="59"/>
      <point x="543" y="22"/>
      <point x="622" y="22" type="curve" smooth="yes"/>
      <point x="725" y="22"/>
      <point x="888" y="103"/>
      <point x="888" y="395" type="curve" smooth="yes"/>
      <point x="888" y="608"/>
      <point x="737" y="697"/>
      <point x="526" y="697" type="curve" smooth="yes"/>
    </contour>
    <contour>
      <point x="509" y="202" type="line" smooth="yes"/>
      <point x="504" y="163"/>
      <point x="468" y="136"/>
      <point x="435" y="136" type="curve" smooth="yes"/>
      <point x="408" y="136"/>
      <point x="385" y="143"/>
      <point x="385" y="172" type="curve" smooth="yes"/>
      <point x="385" y="213"/>
      <point x="422" y="243"/>
      <point x="514" y="243" type="curve"/>
    </contour>
  </outline>
</glyph>
<glyph name="A" format="1">
  <advance width="709"/>
  <unicode hex="0041"/>
  <outline>
    <contour>
      <point x="281" y="686" type="line"/>
      <point x="-44" y="0" type="line"/>
      <point x="157" y="0" type="line"/>
      <point x="214" y="122" type="line"/>
      <point x="432" y="122" type="line"/>
      <point x="456" y="0" type="line"/>
      <point x="674" y="0" type="line"/>
      <point x="542" y="686" type="line"/>
    </contour>
    <contour>
      <point x="405" y="267" type="line"/>
      <point x="283" y="267" type="line"/>
      <point x="371" y="475" type="line"/>
      <point x="376" y="475" type="line"/>
    </contour>
    <contour>
      <point x="638" y="10" type="move" name="ogonek"/>
    </contour>
    <contour>
      <point x="412" y="686" type="move" name="top"/>
    </contour>
  </outline>
</glyph>
<glyph name="D" format="1">
  <advance width="697"/>
  <unicode hex="0044"/>
  <outline>
    <contour>
      <point x="113" y="686" type="line"/>
      <point x="16" y="0" type="line"/>
      <point x="325" y="0" type="line" smooth="yes"/>
      <point x="520" y="0"/>
      <point x="642" y="134"/>
      <point x="667" y="300" type="curve" smooth="yes"/>
      <point x="680" y="386" type="line" smooth="yes"/>
      <point x="682" y="400"/>
      <point x="683" y="414"/>
      <point x="683" y="428" type="curve" smooth="yes"/>
      <point x="683" y="574"/>
      <point x="574" y="686"/>
      <point x="422" y="686" type="curve" smooth="yes"/>
    </contour>
    <contour>
      <point x="431" y="530"/>
      <point x="467" y="492"/>
      <point x="467" y="443" type="curve"/>
      <point x="442" y="259" type="line" smooth="yes"/>
      <point x="434" y="203"/>
      <point x="396" y="159"/>
      <point x="328" y="159" type="curve" smooth="yes"/>
      <point x="251" y="159" type="line"/>
      <point x="303" y="530" type="line"/>
      <point x="380" y="530" type="line" smooth="yes"/>
    </contour>
    <contour>
      <point x="349" y="343" type="move" name="center"/>
    </contour>
    <contour>
      <point x="349" y="686" type="move" name="top"/>
    </contour>
  </outline>
</glyph>
<glyph name="F" format="1">
  <advance width="563"/>
  <unicode hex="0046"/>
  <outline>
    <contour>
      <point x="113" y="686" type="line"/>
      <point x="16" y="0" type="line"/>
      <point x="221" y="0" type="line"/>
      <point x="257" y="257" type="line"/>
      <point x="509" y="257" type="line"/>
      <point x="531" y="411" type="line"/>
      <point x="279" y="411" type="line"/>
      <point x="295" y="523" type="line"/>
      <point x="566" y="523" type="line"/>
      <point x="609" y="686" type="line"/>
    </contour>
  </outline>
</glyph>
<glyph name="I" format="1">
  <advance width="446"/>
  <unicode hex="0049"/>
  <outline>
    <contour>
      <point x="92" y="686" type="line"/>
      <point x="71" y="539" type="line"/>
      <point x="152" y="539" type="line"/>
      <point x="97" y="148" type="line"/>
      <point x="16" y="148" type="line"/>
      <point x="-5" y="0" type="line"/>
      <point x="369" y="0" type="line"/>
      <point x="390" y="148" type="line"/>
      <point x="309" y="148" type="line"/>
      <point x="364" y="539" type="line"/>
      <point x="445" y="539" type="line"/>
      <point x="466" y="686" type="line"/>
    </contour>
    <contour>
      <point x="351" y="10" type="move" name="ogonek"/>
    </contour>
    <contour>
      <point x="283" y="686" type="move" name="top"/>
    </contour>
  </outline>
</glyph>
<glyph name="J" format="1">
  <advance width="543"/>
  <unicode hex="004A"/>
  <outline>
    <contour>
      <point x="339" y="686" type="line"/>
      <point x="269" y="186" type="line" smooth="yes"/>
      <point x="265" y="158"/>
      <point x="244" y="140"/>
      <point x="221" y="140" type="curve" smooth="yes"/>
      <point x="201" y="140"/>
      <point x="185" y="155"/>
      <point x="185" y="178" type="curve" smooth="yes"/>
      <point x="185" y="182"/>
      <point x="187" y="199"/>
      <point x="190" y="216" type="curve" smooth="yes"/>
      <point x="195" y="248" type="line"/>
      <point x="3" y="248" type="line"/>
      <point x="-7" y="189"/>
      <point x="-9" y="170"/>
      <point x="-9" y="158" type="curve" smooth="yes"/>
      <point x="-9" y="147" type="line" smooth="yes"/>
      <point x="-9" y="46"/>
      <point x="63" y="-10"/>
      <point x="186" y="-10" type="curve" smooth="yes"/>
      <point x="217" y="-10" type="line" smooth="yes"/>
      <point x="350" y="-10"/>
      <point x="454" y="55"/>
      <point x="473" y="180" type="curve"/>
      <point x="544" y="686" type="line"/>
    </contour>
    <contour>
      <point x="422" y="686" type="move" name="top"/>
    </contour>
  </outline>
</glyph>
<glyph name="W" format="1">
  <advance width="1022"/>
  <unicode hex="0057"/>
  <outline>
    <contour>
      <point x="881" y="686" type="line"/>
      <point x="730" y="305" type="line"/>
      <point x="726" y="305" type="line"/>
      <point x="684" y="686" type="line"/>
      <point x="469" y="686" type="line"/>
      <point x="317" y="305" type="line"/>
      <point x="313" y="305" type="line"/>
      <point x="270" y="686" type="line"/>
      <point x="53" y="686" type="line"/>
      <point x="143" y="0" type="line"/>
      <point x="385" y="0" type="line"/>
      <point x="515" y="329" type="line"/>
      <point x="521" y="329" type="line"/>
      <point x="557" y="0" type="line"/>
      <point x="795" y="0" type="line"/>
      <point x="1078" y="686" type="line"/>
    </contour>
    <contour>
      <point x="571" y="686" type="move" name="top"/>
    </contour>
  </outline>
</glyph>
<glyph name="asciicircum" format="1">
  <advance width="600"/>
  <unicode hex="005E"/>
  <outline>
    <contour>
      <point x="265" y="511" type="line"/>
      <point x="-2" y="0" type="line"/>
      <point x="137" y="0" type="line"/>
      <point x="314" y="350" type="line"/>
      <point x="392" y="0" type="line"/>
      <point x="530" y="0" type="line"/>
      <point x="404" y="511" type="line"/>
    </contour>
  </outline>
</glyph>
<glyph name="underscore" format="1">
  <advance width="662"/>
  <unicode hex="005F"/>
  <outline>
    <contour>
      <point x="30" y="-65" type="line"/>
      <point x="22" y="-127" type="line"/>
      <point x="521" y="-127" type="line"/>
      <point x="530" y="-65" type="line"/>
    </contour>
  </outline>
</glyph>
<glyph name="grave" format="1">
  <advance width="333"/>
  <unicode hex="0060"/>
  <outline>
    <contour>
      <point x="54" y="720" type="line"/>
      <point x="51" y="717" type="line"/>
      <point x="157" y="575" type="line"/>
      <point x="275" y="575" type="line"/>
      <point x="205" y="720" type="line"/>
    </contour>
    <contour>
      <point x="203" y="511" type="move" name="_top"/>
    </contour>
  </outline>
</glyph>
<glyph name="d" format="1">
  <advance width="639"/>
  <unicode hex="0064"/>
  <outline>
    <contour>
      <point x="413" y="720" type="line"/>
      <point x="376" y="458" type="line"/>
      <point x="360" y="493"/>
      <point x="324" y="521"/>
      <point x="253" y="521" type="curve" smooth="yes"/>
      <point x="137" y="521"/>
      <point x="18" y="413"/>
      <point x="18" y="193" type="curve" smooth="yes"/>
      <point x="18" y="56"/>
      <point x="89" y="-10"/>
      <point x="197" y="-10" type="curve" smooth="yes"/>
      <point x="271" y="-10"/>
      <point x="310" y="24"/>
      <point x="342" y="59" type="curve"/>
      <point x="360" y="-1"/>
      <point x="418" y="-10"/>
      <point x="475" y="-10" type="curve" smooth="yes"/>
      <point x="507" y="-10"/>
      <point x="549" y="-2"/>
      <point x="578" y="13" type="curve"/>
      <point x="593" y="123" type="line"/>
      <point x="582" y="116"/>
      <point x="569" y="110"/>
      <point x="556" y="110" type="curve" smooth="yes"/>
      <point x="533" y="110"/>
      <point x="531" y="127"/>
      <point x="531" y="146" type="curve"/>
      <point x="530" y="158"/>
      <point x="551" y="302"/>
      <point x="571" y="442" type="curve" smooth="yes"/>
      <point x="611" y="720" type="line"/>
    </contour>
    <contour>
      <point x="336" y="396"/>
      <point x="358" y="377"/>
      <point x="358" y="338" type="curve" smooth="yes"/>
      <point x="358" y="329"/>
      <point x="352" y="290"/>
      <point x="347" y="253" type="curve" smooth="yes"/>
      <point x="337" y="181" type="line" smooth="yes"/>
      <point x="331" y="142"/>
      <point x="308" y="111"/>
      <point x="265" y="111" type="curve" smooth="yes"/>
      <point x="234" y="111"/>
      <point x="212" y="135"/>
      <point x="212" y="170" type="curve" smooth="yes"/>
      <point x="212" y="174"/>
      <point x="212" y="178"/>
      <point x="233" y="326" type="curve" smooth="yes"/>
      <point x="238" y="365"/>
      <point x="268" y="396"/>
      <point x="305" y="396" type="curve" smooth="yes"/>
    </contour>
    <contour>
      <point x="320" y="256" type="move" name="center"/>
    </contour>
    <contour>
      <point x="756" y="686" type="move" name="topright"/>
    </contour>
  </outline>
</glyph>
<glyph name="g" format="1">
  <advance width="600"/>
  <unicode hex="0067"/>
  <outline>
    <contour>
      <point x="92" y="521"/>
      <point x="18" y="355"/>
      <point x="18" y="216" type="curve" smooth="yes"/>
      <point x="18" y="112"/>
      <point x="64" y="19"/>
      <point x="179" y="19" type="curve" smooth="yes"/>
      <point x="234" y="19"/>
      <point x="284" y="43"/>
      <point x="321" y="82" type="curve"/>
      <point x="312" y="7" type="line"/>
      <point x="307" y="-21"/>
      <point x="298" y="-63"/>
      <point x="252" y="-63" type="curve" smooth="yes"/>
      <point x="211" y="-63"/>
      <point x="196" y="-36"/>
      <point x="196" y="-19" type="curve"/>
      <point x="-3" y="-19" type="line"/>
      <point x="-3" y="-147"/>
      <point x="121" y="-186"/>
      <point x="245" y="-186" type="curve" smooth="yes"/>
      <point x="381" y="-186"/>
      <point x="491" y="-116"/>
      <point x="513" y="40" type="curve" smooth="yes"/>
      <point x="579" y="511" type="line"/>
      <point x="509" y="511" type="line"/>
      <point x="430" y="436" type="line"/>
      <point x="398" y="495"/>
      <point x="340" y="521"/>
      <point x="275" y="521" type="curve" smooth="yes"/>
    </contour>
    <contour>
      <point x="334" y="400"/>
      <point x="356" y="381"/>
      <point x="356" y="342" type="curve" smooth="yes"/>
      <point x="356" y="325"/>
      <point x="347" y="270"/>
      <point x="339" y="214" type="curve" smooth="yes"/>
      <point x="334" y="175"/>
      <point x="310" y="144"/>
      <point x="267" y="144" type="curve" smooth="yes"/>
      <point x="236" y="144"/>
      <point x="214" y="168"/>
      <point x="214" y="203" type="curve" smooth="yes"/>
      <point x="214" y="207"/>
      <point x="217" y="239"/>
      <point x="222" y="270" type="curve" smooth="yes"/>
      <point x="231" y="330" type="line" smooth="yes"/>
      <point x="237" y="371"/>
      <point x="267" y="400"/>
      <point x="303" y="400" type="curve" smooth="yes"/>
    </contour>
    <contour>
      <point x="330" y="511" type="move" name="top"/>
    </contour>
  </outline>
</glyph>
<glyph name="h" format="1">
  <advance width="597"/>
  <unicode hex="0068"/>
  <outline>
    <contour>
      <point x="109" y="720" type="line"/>
      <point x="9" y="0" type="line"/>
      <point x="206" y="0" type="line"/>
      <point x="251" y="320" type="line" smooth="yes"/>
      <point x="256" y="353"/>
      <point x="277" y="380"/>
      <point x="312" y="380" type="curve" smooth="yes"/>
      <point x="343" y="380"/>
      <point x="358" y="358"/>
      <point x="358" y="333" type="curve" smooth="yes"/>
      <point x="358" y="313"/>
      <point x="356" y="323"/>
      <point x="312" y="0" type="curve"/>
      <point x="510" y="0" type="line"/>
      <point x="553" y="313"/>
      <point x="563" y="360"/>
      <point x="563" y="380" type="curve" smooth="yes"/>
      <point x="563" y="392" type="line" smooth="yes"/>
      <point x="563" y="428"/>
      <point x="548" y="521"/>
      <point x="420" y="521" type="curve" smooth="yes"/>
      <point x="335" y="521"/>
      <point x="288" y="478"/>
      <point x="269" y="451" type="curve"/>
      <point x="307" y="720" type="line"/>
    </contour>
    <contour>
      <point x="299" y="256" type="move" name="center"/>
    </contour>
    <contour>
      <point x="214" y="686" type="move" name="top"/>
    </contour>
  </outline>
</glyph>
<glyph name="l" format="1">
  <advance width="297"/>
  <unicode hex="006C"/>
  <outline>
    <contour>
      <point x="109" y="720" type="line"/>
      <point x="9" y="0" type="line"/>
      <point x="206" y="0" type="line"/>
      <point x="307" y="720" type="line"/>
    </contour>
    <contour>
      <point x="203" y="686" type="move" name="top"/>
    </contour>
    <contour>
      <point x="108" y="0" type="move" name="bottom"/>
    </contour>
    <contour>
      <point x="461" y="686" type="move" name="topright"/>
    </contour>
  </outline>
</glyph>
<glyph name="m" format="1">
  <advance width="869"/>
  <unicode hex="006D"/>
  <outline>
    <contour>
      <point x="613" y="521"/>
      <point x="568" y="488"/>
      <point x="535" y="443" type="curve"/>
      <point x="516" y="490"/>
      <point x="478" y="521"/>
      <point x="402" y="521" type="curve" smooth="yes"/>
      <point x="313" y="521"/>
      <point x="256" y="463"/>
      <point x="238" y="437" type="curve"/>
      <point x="228" y="511" type="line"/>
      <point x="80" y="511" type="line"/>
      <point x="8" y="0" type="line"/>
      <point x="202" y="0" type="line"/>
      <point x="247" y="324" type="line" smooth="yes"/>
      <point x="251" y="357"/>
      <point x="273" y="379"/>
      <point x="303" y="379" type="curve" smooth="yes"/>
      <point x="326" y="379"/>
      <point x="344" y="361"/>
      <point x="344" y="334" type="curve" smooth="yes"/>
      <point x="344" y="310"/>
      <point x="318" y="154"/>
      <point x="298" y="0" type="curve"/>
      <point x="492" y="0" type="line"/>
      <point x="537" y="324" type="line" smooth="yes"/>
      <point x="541" y="357"/>
      <point x="563" y="379"/>
      <point x="593" y="379" type="curve" smooth="yes"/>
      <point x="616" y="379"/>
      <point x="634" y="361"/>
      <point x="634" y="334" type="curve" smooth="yes"/>
      <point x="634" y="310"/>
      <point x="608" y="154"/>
      <point x="588" y="0" type="curve"/>
      <point x="782" y="0" type="line"/>
      <point x="793" y="67"/>
      <point x="800" y="129"/>
      <point x="808" y="184" type="curve" smooth="yes"/>
      <point x="818" y="254" type="line" smooth="yes"/>
      <point x="828" y="322"/>
      <point x="835" y="380"/>
      <point x="835" y="392" type="curve" smooth="yes"/>
      <point x="835" y="465"/>
      <point x="788" y="521"/>
      <point x="692" y="521" type="curve" smooth="yes"/>
    </contour>
  </outline>
</glyph>
<glyph name="q" format="1">
  <advance width="599"/>
  <unicode hex="0071"/>
  <outline>
    <contour>
      <point x="85" y="520"/>
      <point x="16" y="337"/>
      <point x="16" y="184" type="curve" smooth="yes"/>
      <point x="16" y="53"/>
      <point x="84" y="-11"/>
      <point x="177" y="-11" type="curve" smooth="yes"/>
      <point x="246" y="-11"/>
      <point x="294" y="28"/>
      <point x="318" y="52" type="curve"/>
      <point x="285" y="-180" type="line"/>
      <point x="483" y="-180" type="line"/>
      <point x="580" y="511" type="line"/>
      <point x="510" y="511" type="line"/>
      <point x="425" y="443" type="line"/>
      <point x="394" y="498"/>
      <point x="344" y="520"/>
      <point x="276" y="520" type="curve" smooth="yes"/>
    </contour>
    <contour>
      <point x="335" y="399"/>
      <point x="357" y="380"/>
      <point x="357" y="341" type="curve" smooth="yes"/>
      <point x="357" y="332"/>
      <point x="351" y="293"/>
      <point x="346" y="256" type="curve" smooth="yes"/>
      <point x="336" y="184" type="line" smooth="yes"/>
      <point x="330" y="145"/>
      <point x="307" y="114"/>
      <point x="264" y="114" type="curve" smooth="yes"/>
      <point x="233" y="114"/>
      <point x="211" y="138"/>
      <point x="211" y="173" type="curve" smooth="yes"/>
      <point x="211" y="177"/>
      <point x="211" y="181"/>
      <point x="232" y="329" type="curve" smooth="yes"/>
      <point x="237" y="368"/>
      <point x="267" y="399"/>
      <point x="304" y="399" type="curve" smooth="yes"/>
    </contour>
  </outline>
</glyph>
<glyph name="t" format="1">
  <advance width="419"/>
  <unicode hex="0074"/>
  <outline>
    <contour>
      <point x="133" y="674" type="line"/>
      <point x="110" y="511" type="line"/>
      <point x="54" y="511" type="line"/>
      <point x="34" y="369" type="line"/>
      <point x="90" y="369" type="line"/>
      <point x="55" y="120"/>
      <point x="54" y="124"/>
      <point x="54" y="102" type="curve" smooth="yes"/>
      <point x="54" y="16"/>
      <point x="120" y="-11"/>
      <point x="219" y="-11" type="curve" smooth="yes"/>
      <point x="253" y="-11"/>
      <point x="322" y="-2"/>
      <point x="356" y="11" type="curve"/>
      <point x="372" y="123" type="line"/>
      <point x="355" y="116"/>
      <point x="324" y="111"/>
      <point x="309" y="111" type="curve" smooth="yes"/>
      <point x="280" y="111"/>
      <point x="259" y="118"/>
      <point x="259" y="161" type="curve" smooth="yes"/>
      <point x="259" y="167"/>
      <point x="259" y="173"/>
      <point x="288" y="369" type="curve"/>
      <point x="408" y="369" type="line"/>
      <point x="428" y="511" type="line"/>
      <point x="308" y="511" type="line"/>
      <point x="342" y="674" type="line"/>
    </contour>
    <contour>
      <point x="173" y="256" type="move" name="center"/>
    </contour>
    <contour>
      <point x="210" y="0" type="move" name="bottom"/>
    </contour>
    <contour>
      <point x="592" y="686" type="move" name="topright"/>
    </contour>
  </outline>
</glyph>
<glyph name="y" format="1">
  <advance width="552"/>
  <unicode hex="0079"/>
  <outline>
    <contour>
      <point x="391" y="511" type="line"/>
      <point x="286" y="246" type="line"/>
      <point x="278" y="246" type="line"/>
      <point x="237" y="511" type="line"/>
      <point x="26" y="511" type="line"/>
      <point x="144" y="15" type="line"/>
      <point x="136" y="-10"/>
      <point x="117" y="-57"/>
      <point x="56" y="-57" type="curve" smooth="yes"/>
      <point x="28" y="-57"/>
      <point x="-4" y="-50"/>
      <point x="-17" y="-43" type="curve"/>
      <point x="-34" y="-172" type="line"/>
      <point x="-15" y="-183"/>
      <point x="18" y="-187"/>
      <point x="61" y="-187" type="curve" smooth="yes"/>
      <point x="183" y="-187"/>
      <point x="283" y="-91"/>
      <point x="347" y="36" type="curve" smooth="yes"/>
      <point x="586" y="511" type="line"/>
    </contour>
    <contour>
      <point x="314" y="511" type="move" name="top"/>
    </contour>
  </outline>
</glyph>
<glyph name="braceleft" format="1">
  <advance width="342"/>
  <unicode hex="007B"/>
  <outline>
    <contour>
      <point x="294" y="686" type="line" smooth="yes"/>
      <point x="226" y="686"/>
      <point x="148" y="651"/>
      <point x="137" y="574" type="curve" smooth="yes"/>
      <point x="107" y="360" type="line" smooth="yes"/>
      <point x="101" y="320"/>
      <point x="56" y="303"/>
      <point x="22" y="303" type="curve"/>
      <point x="11" y="224" type="line"/>
      <point x="48" y="224"/>
      <point x="81" y="211"/>
      <point x="81" y="178" type="curve" smooth="yes"/>
      <point x="81" y="149"/>
      <point x="49" y="-29"/>
      <point x="49" y="-63" type="curve" smooth="yes"/>
      <point x="49" y="-130"/>
      <point x="112" y="-159"/>
      <point x="175" y="-159" type="curve" smooth="yes"/>
      <point x="256" y="-159" type="line"/>
      <point x="266" y="-91" type="line"/>
      <point x="238" y="-91"/>
      <point x="196" y="-87"/>
      <point x="196" y="-54" type="curve" smooth="yes"/>
      <point x="196" y="-22"/>
      <point x="215" y="131"/>
      <point x="215" y="175" type="curve" smooth="yes"/>
      <point x="215" y="228"/>
      <point x="188" y="259"/>
      <point x="128" y="259" type="curve"/>
      <point x="129" y="268" type="line"/>
      <point x="196" y="268"/>
      <point x="233" y="306"/>
      <point x="245" y="371" type="curve" smooth="yes"/>
      <point x="284" y="577" type="line" smooth="yes"/>
      <point x="291" y="614"/>
      <point x="338" y="618"/>
      <point x="365" y="618" type="curve"/>
      <point x="375" y="686" type="line"/>
    </contour>
  </outline>
</glyph>
<glyph name="bar" format="1">
  <advance width="291"/>
  <unicode hex="007C"/>
  <outline>
    <contour>
      <point x="81" y="720" type="line"/>
      <point x="81" y="-199" type="line"/>
      <point x="201" y="-199" type="line"/>
      <point x="201" y="720" type="line"/>
    </contour>
  </outline>
</glyph>
<glyph name="asciitilde" format="1">
  <advance width="649"/>
  <unicode hex="007E"/>
  <outline>
    <contour>
      <point x="590" y="372"/>
      <point x="525" y="328"/>
      <point x="450" y="328" type="curve" smooth="yes"/>
      <point x="362" y="328"/>
      <point x="307" y="394"/>
      <point x="221" y="394" type="curve" smooth="yes"/>
      <point x="143" y="394"/>
      <point x="81" y="348"/>
      <point x="47" y="316" type="curve"/>
      <point x="29" y="190" type="line"/>
      <point x="63" y="222"/>
      <point x="125" y="268"/>
      <point x="203" y="268" type="curve" smooth="yes"/>
      <point x="291" y="268"/>
      <point x="346" y="202"/>
      <point x="432" y="202" type="curve" smooth="yes"/>
      <point x="507" y="202"/>
      <point x="572" y="246"/>
      <point x="606" y="280" type="curve"/>
      <point x="624" y="406" type="line"/>
    </contour>
  </outline>
</glyph>
<glyph name="exclamdown" format="1">
  <advance width="303"/>
  <unicode hex="00A1"/>
  <outline>
    <contour>
      <point x="83" y="278" type="line"/>
      <point x="-37" y="-177" type="line"/>
      <point x="210" y="-177" type="line"/>
      <point x="210" y="278" type="line"/>
    </contour>
    <contour>
      <point x="83" y="511" type="line"/>
      <point x="57" y="328" type="line"/>
      <point x="248" y="328" type="line"/>
      <point x="274" y="511" type="line"/>
    </contour>
  </outline>
</glyph>
<glyph name="cent" format="1">
  <advance width="580"/>
  <unicode hex="00A2"/>
  <outline>
    <contour>
      <point x="290" y="694" type="line"/>
      <point x="290" y="603" type="line"/>
      <point x="122" y="579"/>
      <point x="35" y="443"/>
      <point x="35" y="284" type="curve" smooth="yes"/>
      <point x="35" y="191"/>
      <point x="93" y="102"/>
      <point x="218" y="81" type="curve"/>
      <point x="191" y="-10" type="line"/>
      <point x="322" y="-10" type="line"/>
      <point x="322" y="78" type="line"/>
      <point x="446" y="91"/>
      <point x="533" y="166"/>
      <point x="552" y="293" type="curve"/>
      <point x="394" y="293" type="line"/>
      <point x="390" y="267" type="line" smooth="yes"/>
      <point x="385" y="236"/>
      <point x="362" y="197"/>
      <point x="307" y="197" type="curve" smooth="yes"/>
      <point x="264" y="197"/>
      <point x="240" y="222"/>
      <point x="240" y="257" type="curve" smooth="yes"/>
      <point x="240" y="273"/>
      <point x="249" y="346"/>
      <point x="262" y="416" type="curve"/>
      <point x="267" y="455"/>
      <point x="294" y="486"/>
      <point x="341" y="486" type="curve" smooth="yes"/>
      <point x="376" y="486"/>
      <point x="400" y="460"/>
      <point x="400" y="425" type="curve" smooth="yes"/>
      <point x="400" y="419"/>
      <point x="397" y="404"/>
      <point x="397" y="390" type="curve"/>
      <point x="565" y="390" type="line"/>
      <point x="567" y="402"/>
      <point x="568" y="414"/>
      <point x="568" y="426" type="curve" smooth="yes"/>
      <point x="568" y="491"/>
      <point x="538" y="585"/>
      <point x="395" y="604" type="curve"/>
      <point x="419" y="694" type="line"/>
    </contour>
  </outline>
</glyph>
<glyph name="brokenbar" format="1">
  <advance width="270"/>
  <unicode hex="00A6"/>
  <outline>
    <contour>
      <point x="116" y="686" type="line"/>
      <point x="77" y="412" type="line"/>
      <point x="227" y="412" type="line"/>
      <point x="266" y="686" type="line"/>
    </contour>
    <contour>
      <point x="58" y="274" type="line"/>
      <point x="19" y="0" type="line"/>
      <point x="169" y="0" type="line"/>
      <point x="208" y="274" type="line"/>
    </contour>
  </outline>
</glyph>
<glyph name="section" format="1">
  <advance width="568"/>
  <unicode hex="00A7"/>
  <outline>
    <contour>
      <point x="230" y="696"/>
      <point x="77" y="649"/>
      <point x="77" y="507" type="curve" smooth="yes"/>
      <point x="77" y="466"/>
      <point x="94" y="423"/>
      <point x="126" y="402" type="curve"/>
      <point x="66" y="366"/>
      <point x="24" y="319"/>
      <point x="24" y="232" type="curve" smooth="yes"/>
      <point x="24" y="61"/>
      <point x="304" y="54"/>
      <point x="304" y="-26" type="curve" smooth="yes"/>
      <point x="304" y="-63"/>
      <point x="266" y="-67"/>
      <point x="242" y="-67" type="curve" smooth="yes"/>
      <point x="205" y="-67"/>
      <point x="172" y="-57"/>
      <point x="172" y="-25" type="curve"/>
      <point x="8" y="-25" type="line"/>
      <point x="7" y="-32"/>
      <point x="6" y="-38"/>
      <point x="6" y="-41" type="curve" smooth="yes"/>
      <point x="6" y="-51" type="line" smooth="yes"/>
      <point x="6" y="-155"/>
      <point x="128" y="-185"/>
      <point x="222" y="-185" type="curve" smooth="yes"/>
      <point x="329" y="-185"/>
      <point x="481" y="-138"/>
      <point x="481" y="4" type="curve" smooth="yes"/>
      <point x="481" y="45"/>
      <point x="465" y="88"/>
      <point x="433" y="109" type="curve"/>
      <point x="474" y="132"/>
      <point x="535" y="190"/>
      <point x="535" y="280" type="curve" smooth="yes"/>
      <point x="535" y="449"/>
      <point x="254" y="457"/>
      <point x="254" y="537" type="curve" smooth="yes"/>
      <point x="254" y="573"/>
      <point x="297" y="578"/>
      <point x="322" y="578" type="curve" smooth="yes"/>
      <point x="357" y="578"/>
      <point x="387" y="564"/>
      <point x="387" y="533" type="curve"/>
      <point x="551" y="533" type="line"/>
      <point x="552" y="542"/>
      <point x="553" y="548"/>
      <point x="553" y="552" type="curve" smooth="yes"/>
      <point x="553" y="563" type="line" smooth="yes"/>
      <point x="553" y="666"/>
      <point x="430" y="696"/>
      <point x="337" y="696" type="curve" smooth="yes"/>
    </contour>
    <contour>
      <point x="266" y="319"/>
      <point x="380" y="284"/>
      <point x="380" y="220" type="curve" smooth="yes"/>
      <point x="380" y="187"/>
      <point x="358" y="170"/>
      <point x="343" y="164" type="curve"/>
      <point x="296" y="187"/>
      <point x="183" y="223"/>
      <point x="183" y="286" type="curve" smooth="yes"/>
      <point x="183" y="309"/>
      <point x="198" y="334"/>
      <point x="221" y="343" type="curve"/>
    </contour>
  </outline>
</glyph>
<glyph name="copyright" format="1">
  <advance width="775"/>
  <unicode hex="00A9"/>
  <outline>
    <contour>
      <point x="198" y="696"/>
      <point x="41" y="539"/>
      <point x="41" y="344" type="curve" smooth="yes"/>
      <point x="41" y="147"/>
      <point x="198" y="-10"/>
      <point x="395" y="-10" type="curve" smooth="yes"/>
      <point x="590" y="-10"/>
      <point x="749" y="147"/>
      <point x="749" y="344" type="curve" smooth="yes"/>
      <point x="749" y="539"/>
      <point x="590" y="696"/>
      <point x="395" y="696" type="curve" smooth="yes"/>
    </contour>
    <contour>
      <point x="388" y="555" type="line" smooth="yes"/>
      <point x="288" y="555"/>
      <point x="202" y="483"/>
      <point x="202" y="375" type="curve" smooth="yes"/>
      <point x="202" y="311" type="line" smooth="yes"/>
      <point x="202" y="196"/>
      <point x="287" y="131"/>
      <point x="392" y="131" type="curve" smooth="yes"/>
      <point x="409" y="131" type="line" smooth="yes"/>
      <point x="505" y="131"/>
      <point x="578" y="197"/>
      <point x="578" y="305" type="curve"/>
      <point x="466" y="305" type="line"/>
      <point x="466" y="285" type="line" smooth="yes"/>
      <point x="466" y="246"/>
      <point x="439" y="225"/>
      <point x="406" y="225" type="curve" smooth="yes"/>
      <point x="397" y="225" type="line" smooth="yes"/>
      <point x="364" y="225"/>
      <point x="337" y="252"/>
      <point x="337" y="285" type="curve" smooth="yes"/>
      <point x="337" y="401" type="line" smooth="yes"/>
      <point x="337" y="434"/>
      <point x="364" y="461"/>
      <point x="397" y="461" type="curve" smooth="yes"/>
      <point x="433" y="461"/>
      <point x="460" y="438"/>
      <point x="460" y="401" type="curve" smooth="yes"/>
      <point x="460" y="380" type="line"/>
      <point x="578" y="380" type="line"/>
      <point x="578" y="497"/>
      <point x="502" y="555"/>
      <point x="404" y="555" type="curve" smooth="yes"/>
    </contour>
    <contour>
      <point x="563" y="632"/>
      <point x="673" y="518"/>
      <point x="673" y="344" type="curve" smooth="yes"/>
      <point x="673" y="168"/>
      <point x="563" y="55"/>
      <point x="395" y="55" type="curve" smooth="yes"/>
      <point x="224" y="55"/>
      <point x="117" y="168"/>
      <point x="117" y="344" type="curve" smooth="yes"/>
      <point x="117" y="518"/>
      <point x="224" y="632"/>
      <point x="395" y="632" type="curve" smooth="yes"/>
    </contour>
  </outline>
</glyph>
<glyph name="guillemotleft" format="1">
  <advance width="442"/>
  <unicode hex="00AB"/>
  <outline>
    <contour>
      <point x="362" y="511" type="line"/>
      <point x="218" y="337" type="line"/>
      <point x="313" y="163" type="line"/>
      <point x="387" y="163" type="line"/>
      <point x="327" y="337" type="line"/>
      <point x="436" y="511" type="line"/>
    </contour>
    <contour>
      <point x="181" y="511" type="line"/>
      <point x="37" y="337" type="line"/>
      <point x="132" y="163" type="line"/>
      <point x="206" y="163" type="line"/>
      <point x="146" y="337" type="line"/>
      <point x="255" y="511" type="line"/>
    </contour>
  </outline>
</glyph>
<glyph name="cedilla" format="1">
  <advance width="334"/>
  <unicode hex="00B8"/>
  <outline>
    <contour>
      <point x="160" y="-17" type="line"/>
      <point x="152" y="-76" type="line"/>
      <point x="170" y="-76" type="line" smooth="yes"/>
      <point x="195" y="-76"/>
      <point x="204" y="-85"/>
      <point x="204" y="-100" type="curve" smooth="yes"/>
      <point x="204" y="-129"/>
      <point x="186" y="-139"/>
      <point x="159" y="-139" type="curve" smooth="yes"/>
      <point x="115" y="-139"/>
      <point x="89" y="-120"/>
      <point x="79" y="-107" type="curve"/>
      <point x="39" y="-161" type="line"/>
      <point x="66" y="-185"/>
      <point x="113" y="-197"/>
      <point x="160" y="-197" type="curve" smooth="yes"/>
      <point x="202" y="-197"/>
      <point x="291" y="-180"/>
      <point x="291" y="-100" type="curve" smooth="yes"/>
      <point x="291" y="-92" type="line" smooth="yes"/>
      <point x="291" y="-32"/>
      <point x="235" y="-17"/>
      <point x="181" y="-17" type="curve" smooth="yes"/>
    </contour>
    <contour>
      <point x="165" y="0" type="move" name="_bottom"/>
    </contour>
  </outline>
</glyph>
<glyph name="onequarter" format="1">
  <advance width="765"/>
  <unicode hex="00BC"/>
  <outline>
    <contour>
      <point x="620" y="686" type="line"/>
      <point x="103" y="0" type="line"/>
      <point x="192" y="0" type="line"/>
      <point x="706" y="686" type="line"/>
    </contour>
    <contour>
      <point x="243" y="685" type="line"/>
      <point x="198" y="658"/>
      <point x="133" y="630"/>
      <point x="83" y="627" type="curve"/>
      <point x="75" y="565" type="line"/>
      <point x="157" y="565" type="line"/>
      <point x="133" y="393" type="line"/>
      <point x="51" y="393" type="line"/>
      <point x="39" y="311" type="line"/>
      <point x="304" y="311" type="line"/>
      <point x="316" y="393" type="line"/>
      <point x="238" y="393" type="line"/>
      <point x="279" y="685" type="line"/>
    </contour>
    <contour>
      <point x="529" y="375" type="line"/>
      <point x="510" y="322"/>
      <point x="449" y="209"/>
      <point x="415" y="162" type="curve"/>
      <point x="404" y="81" type="line"/>
      <point x="555" y="81" type="line"/>
      <point x="543" y="0" type="line"/>
      <point x="644" y="0" type="line"/>
      <point x="656" y="81" type="line"/>
      <point x="709" y="81" type="line"/>
      <point x="720" y="161" type="line"/>
      <point x="667" y="161" type="line"/>
      <point x="692" y="339" type="line"/>
      <point x="647" y="339" type="line"/>
      <point x="636" y="309"/>
      <point x="595" y="242"/>
      <point x="574" y="216" type="curve"/>
      <point x="566" y="161" type="line"/>
      <point x="485" y="161" type="line"/>
      <point x="529" y="207"/>
      <point x="608" y="317"/>
      <point x="624" y="375" type="curve"/>
    </contour>
  </outline>
</glyph>
<glyph name="questiondown" format="1">
  <advance width="578"/>
  <unicode hex="00BF"/>
  <outline>
    <contour>
      <point x="198" y="292" type="line"/>
      <point x="195" y="270" type="line" smooth="yes"/>
      <point x="187" y="212"/>
      <point x="-12" y="184"/>
      <point x="-12" y="2" type="curve" smooth="yes"/>
      <point x="-12" y="-112"/>
      <point x="85" y="-186"/>
      <point x="200" y="-186" type="curve" smooth="yes"/>
      <point x="238" y="-186" type="line" smooth="yes"/>
      <point x="384" y="-186"/>
      <point x="498" y="-106"/>
      <point x="518" y="25" type="curve" smooth="yes"/>
      <point x="520" y="38"/>
      <point x="521" y="50"/>
      <point x="521" y="63" type="curve"/>
      <point x="337" y="63" type="line"/>
      <point x="337" y="15"/>
      <point x="324" y="-48"/>
      <point x="257" y="-48" type="curve" smooth="yes"/>
      <point x="222" y="-48"/>
      <point x="200" y="-21"/>
      <point x="200" y="12" type="curve" smooth="yes"/>
      <point x="200" y="108"/>
      <point x="347" y="150"/>
      <point x="360" y="233" type="curve" smooth="yes"/>
      <point x="369" y="292" type="line"/>
    </contour>
    <contour>
      <point x="216" y="511" type="line"/>
      <point x="191" y="328" type="line"/>
      <point x="382" y="328" type="line"/>
      <point x="407" y="511" type="line"/>
    </contour>
  </outline>
</glyph>
<glyph name="Aacute" format="1">
  <advance width="709"/>
  <unicode hex="00C1"/>
  <outline>
    <contour>
      <point x="281" y="686" type="line"/>
      <point x="-44" y="0" type="line"/>
      <point x="157" y="0" type="line"/>
      <point x="214" y="122" type="line"/>
      <point x="432" y="122" type="line"/>
      <point x="456" y="0" type="line"/>
      <point x="674" y="0" type="line"/>
      <point x="542" y="686" type="line"/>
    </contour>
    <contour>
      <point x="405" y="267" type="line"/>
      <point x="283" y="267" type="line"/>
      <point x="371" y="475" type="line"/>
      <point x="376" y="475" type="line"/>
    </contour>
    <contour>
      <point x="468" y="895" type="line"/>
      <point x="356" y="750" type="line"/>
      <point x="474" y="750" type="line"/>
      <point x="620" y="892" type="line"/>
      <point x="619" y="895" type="line"/>
    </contour>
  </outline>
</glyph>
<glyph name="Acircumflex" format="1">
  <advance width="709"/>
  <unicode hex="00C2"/>
  <outline>
    <contour>
      <point x="281" y="686" type="line"/>
      <point x="-44" y="0" type="line"/>
      <point x="157" y="0" type="line"/>
      <point x="214" y="122" type="line"/>
      <point x="432" y="122" type="line"/>
      <point x="456" y="0" type="line"/>
      <point x="674" y="0" type="line"/>
      <point x="542" y="686" type="line"/>
    </contour>
    <contour>
      <point x="405" y="267" type="line"/>
      <point x="283" y="267" type="line"/>
      <point x="371" y="475" type="line"/>
      <point x="376" y="475" type="line"/>
    </contour>
    <contour>
      <point x="371" y="896" type="line"/>
      <point x="211" y="751" type="line"/>
      <point x="339" y="751" type="line"/>
      <point x="424" y="828" type="line"/>
      <point x="487" y="751" type="line"/>
      <point x="617" y="751" type="line"/>
      <point x="499" y="896" type="line"/>
    </contour>
  </outline>
</glyph>
<glyph name="Ecircumflex" format="1">
  <advance width="600"/>
  <unicode hex="00CA"/>
  <outline>
    <contour>
      <point x="113" y="686" type="line"/>
      <point x="16" y="0" type="line"/>
      <point x="531" y="0" type="line"/>
      <point x="531" y="164" type="line"/>
      <point x="245" y="164" type="line"/>
      <point x="261" y="275" type="line"/>
      <point x="539" y="275" type="line"/>
      <point x="560" y="428" type="line"/>
      <point x="282" y="428" type="line"/>
      <point x="297" y="528" type="line"/>
      <point x="586" y="528" type="line"/>
      <point x="628" y="686" type="line"/>
    </contour>
    <contour>
      <point x="336" y="896" type="line"/>
      <point x="176" y="751" type="line"/>
      <point x="304" y="751" type="line"/>
      <point x="389" y="828" type="line"/>
      <point x="452" y="751" type="line"/>
      <point x="582" y="751" type="line"/>
      <point x="464" y="896" type="line"/>
    </contour>
  </outline>
</glyph>
<glyph name="Ocircumflex" format="1">
  <advance width="719"/>
  <unicode hex="00D4"/>
  <outline>
    <contour>
      <point x="388" y="694" type="line" smooth="yes"/>
      <point x="202" y="694"/>
      <point x="69" y="560"/>
      <point x="46" y="394" type="curve" smooth="yes"/>
      <point x="29" y="276"/>
      <point x="28" y="277"/>
      <point x="28" y="248" type="curve" smooth="yes"/>
      <point x="28" y="102"/>
      <point x="137" y="-10"/>
      <point x="289" y="-10" type="curve" smooth="yes"/>
      <point x="345" y="-10" type="line" smooth="yes"/>
      <point x="532" y="-10"/>
      <point x="663" y="124"/>
      <point x="687" y="290" type="curve"/>
      <point x="703" y="408"/>
      <point x="705" y="402"/>
      <point x="705" y="436" type="curve" smooth="yes"/>
      <point x="705" y="582"/>
      <point x="596" y="694"/>
      <point x="444" y="694" type="curve" smooth="yes"/>
    </contour>
    <contour>
      <point x="448" y="540"/>
      <point x="484" y="502"/>
      <point x="484" y="454" type="curve" smooth="yes"/>
      <point x="484" y="448"/>
      <point x="484" y="443"/>
      <point x="483" y="440" type="curve"/>
      <point x="456" y="247" type="line" smooth="yes"/>
      <point x="448" y="191"/>
      <point x="410" y="147"/>
      <point x="342" y="147" type="curve" smooth="yes"/>
      <point x="337" y="147" type="line" smooth="yes"/>
      <point x="286" y="147"/>
      <point x="250" y="184"/>
      <point x="250" y="233" type="curve" smooth="yes"/>
      <point x="250" y="240" type="line" smooth="yes"/>
      <point x="250" y="242"/>
      <point x="250" y="244"/>
      <point x="251" y="247" type="curve"/>
      <point x="278" y="440" type="line" smooth="yes"/>
      <point x="286" y="496"/>
      <point x="324" y="540"/>
      <point x="392" y="540" type="curve" smooth="yes"/>
      <point x="397" y="540" type="line" smooth="yes"/>
    </contour>
    <contour>
      <point x="382" y="895" type="line"/>
      <point x="222" y="750" type="line"/>
      <point x="350" y="750" type="line"/>
      <point x="435" y="827" type="line"/>
      <point x="498" y="750" type="line"/>
      <point x="628" y="750" type="line"/>
      <point x="510" y="895" type="line"/>
    </contour>
  </outline>
</glyph>
<glyph name="Otilde" format="1">
  <advance width="719"/>
  <unicode hex="00D5"/>
  <outline>
    <contour>
      <point x="388" y="694" type="line" smooth="yes"/>
      <point x="202" y="694"/>
      <point x="69" y="560"/>
      <point x="46" y="394" type="curve" smooth="yes"/>
      <point x="29" y="276"/>
      <point x="28" y="277"/>
      <point x="28" y="248" type="curve" smooth="yes"/>
      <point x="28" y="102"/>
      <point x="137" y="-10"/>
      <point x="289" y="-10" type="curve" smooth="yes"/>
      <point x="345" y="-10" type="line" smooth="yes"/>
      <point x="532" y="-10"/>
      <point x="663" y="124"/>
      <point x="687" y="290" type="curve"/>
      <point x="703" y="408"/>
      <point x="705" y="402"/>
      <point x="705" y="436" type="curve" smooth="yes"/>
      <point x="705" y="582"/>
      <point x="596" y="694"/>
      <point x="444" y="694" type="curve" smooth="yes"/>
    </contour>
    <contour>
      <point x="448" y="540"/>
      <point x="484" y="502"/>
      <point x="484" y="454" type="curve" smooth="yes"/>
      <point x="484" y="448"/>
      <point x="484" y="443"/>
      <point x="483" y="440" type="curve"/>
      <point x="456" y="247" type="line" smooth="yes"/>
      <point x="448" y="191"/>
      <point x="410" y="147"/>
      <point x="342" y="147" type="curve" smooth="yes"/>
      <point x="337" y="147" type="line" smooth="yes"/>
      <point x="286" y="147"/>
      <point x="250" y="184"/>
      <point x="250" y="233" type="curve" smooth="yes"/>
      <point x="250" y="240" type="line" smooth="yes"/>
      <point x="250" y="242"/>
      <point x="250" y="244"/>
      <point x="251" y="247" type="curve"/>
      <point x="278" y="440" type="line" smooth="yes"/>
      <point x="286" y="496"/>
      <point x="324" y="540"/>
      <point x="392" y="540" type="curve" smooth="yes"/>
      <point x="397" y="540" type="line" smooth="yes"/>
    </contour>
    <contour>
      <point x="593" y="888" type="line"/>
      <point x="582" y="865"/>
      <point x="562" y="848"/>
      <point x="537" y="848" type="curve" smooth="yes"/>
      <point x="483" y="848"/>
      <point x="434" y="888"/>
      <point x="370" y="888" type="curve" smooth="yes"/>
      <point x="285" y="888"/>
      <point x="221" y="817"/>
      <point x="210" y="745" type="curve"/>
      <point x="290" y="745" type="line"/>
      <point x="301" y="768"/>
      <point x="321" y="785"/>
      <point x="346" y="785" type="curve" smooth="yes"/>
      <point x="399" y="785"/>
      <point x="449" y="745"/>
      <point x="513" y="745" type="curve" smooth="yes"/>
      <point x="600" y="745"/>
      <point x="663" y="816"/>
      <point x="674" y="888" type="curve"/>
    </contour>
  </outline>
</glyph>
<glyph name="Oslash" format="1">
  <advance width="719"/>
  <unicode hex="00D8"/>
  <outline>
    <contour>
      <point x="618" y="754" type="line"/>
      <point x="556" y="671" type="line"/>
      <point x="521" y="686"/>
      <point x="485" y="694"/>
      <point x="444" y="694" type="curve" smooth="yes"/>
      <point x="388" y="694" type="line" smooth="yes"/>
      <point x="202" y="694"/>
      <point x="69" y="560"/>
      <point x="46" y="394" type="curve" smooth="yes"/>
      <point x="29" y="276"/>
      <point x="28" y="277"/>
      <point x="28" y="248" type="curve" smooth="yes"/>
      <point x="28" y="175"/>
      <point x="54" y="111"/>
      <point x="101" y="64" type="curve"/>
      <point x="4" y="-65" type="line"/>
      <point x="111" y="-65" type="line"/>
      <point x="171" y="15" type="line"/>
      <point x="206" y="0"/>
      <point x="246" y="-10"/>
      <point x="289" y="-10" type="curve" smooth="yes"/>
      <point x="345" y="-10" type="line" smooth="yes"/>
      <point x="532" y="-10"/>
      <point x="663" y="124"/>
      <point x="687" y="290" type="curve"/>
      <point x="703" y="408"/>
      <point x="705" y="402"/>
      <point x="705" y="436" type="curve" smooth="yes"/>
      <point x="705" y="512"/>
      <point x="676" y="576"/>
      <point x="628" y="623" type="curve"/>
      <point x="726" y="754" type="line"/>
    </contour>
    <contour>
      <point x="456" y="247" type="line" smooth="yes"/>
      <point x="448" y="191"/>
      <point x="410" y="147"/>
      <point x="342" y="147" type="curve" smooth="yes"/>
      <point x="337" y="147" type="line" smooth="yes"/>
      <point x="316" y="147"/>
      <point x="298" y="153"/>
      <point x="283" y="164" type="curve"/>
      <point x="481" y="428" type="line"/>
    </contour>
    <contour>
      <point x="414" y="540"/>
      <point x="431" y="535"/>
      <point x="446" y="525" type="curve"/>
      <point x="254" y="268" type="line"/>
      <point x="278" y="440" type="line" smooth="yes"/>
      <point x="286" y="496"/>
      <point x="324" y="540"/>
      <point x="392" y="540" type="curve" smooth="yes"/>
      <point x="397" y="540" type="line" smooth="yes"/>
    </contour>
    <contour>
      <point x="420" y="686" type="move" name="top"/>
    </contour>
  </outline>
</glyph>
<glyph name="Udieresis" format="1">
  <advance width="687"/>
  <unicode hex="00DC"/>
  <outline>
    <contour>
      <point x="480" y="686" type="line"/>
      <point x="415" y="221" type="line" smooth="yes"/>
      <point x="409" y="177"/>
      <point x="379" y="146"/>
      <point x="324" y="146" type="curve" smooth="yes"/>
      <point x="283" y="146"/>
      <point x="252" y="171"/>
      <point x="252" y="210" type="curve" smooth="yes"/>
      <point x="252" y="215"/>
      <point x="252" y="218"/>
      <point x="253" y="221" type="curve"/>
      <point x="318" y="686" type="line"/>
      <point x="107" y="686" type="line"/>
      <point x="42" y="218" type="line" smooth="yes"/>
      <point x="40" y="206"/>
      <point x="39" y="194"/>
      <point x="39" y="182" type="curve" smooth="yes"/>
      <point x="39" y="65"/>
      <point x="131" y="-10"/>
      <point x="280" y="-10" type="curve" smooth="yes"/>
      <point x="323" y="-10" type="line" smooth="yes"/>
      <point x="504" y="-10"/>
      <point x="604" y="80"/>
      <point x="625" y="218" type="curve"/>
      <point x="690" y="686" type="line"/>
    </contour>
    <contour>
      <point x="239" y="897" type="line"/>
      <point x="218" y="750" type="line"/>
      <point x="370" y="750" type="line"/>
      <point x="391" y="897" type="line"/>
    </contour>
    <contour>
      <point x="459" y="897" type="line"/>
      <point x="438" y="750" type="line"/>
      <point x="590" y="750" type="line"/>
      <point x="611" y="897" type="line"/>
    </contour>
  </outline>
</glyph>
<glyph name="germandbls" format="1">
  <advance width="652"/>
  <unicode hex="00DF"/>
  <outline>
    <contour>
      <point x="283" y="728"/>
      <point x="145" y="663"/>
      <point x="118" y="511" type="curve"/>
      <point x="56" y="511" type="line"/>
      <point x="36" y="369" type="line"/>
      <point x="98" y="369" type="line"/>
      <point x="37" y="-66" type="line"/>
      <point x="235" y="-66" type="line"/>
      <point x="316" y="511" type="line" smooth="yes"/>
      <point x="321" y="550"/>
      <point x="353" y="579"/>
      <point x="389" y="579" type="curve" smooth="yes"/>
      <point x="421" y="579"/>
      <point x="444" y="554"/>
      <point x="444" y="521" type="curve" smooth="yes"/>
      <point x="444" y="477"/>
      <point x="406" y="443"/>
      <point x="369" y="443" type="curve" smooth="yes"/>
      <point x="342" y="443" type="line"/>
      <point x="325" y="321" type="line"/>
      <point x="353" y="321" type="line" smooth="yes"/>
      <point x="394" y="321"/>
      <point x="423" y="290"/>
      <point x="423" y="247" type="curve" smooth="yes"/>
      <point x="423" y="195"/>
      <point x="377" y="148"/>
      <point x="329" y="148" type="curve" smooth="yes"/>
      <point x="301" y="148" type="line"/>
      <point x="280" y="0" type="line"/>
      <point x="343" y="0" type="line" smooth="yes"/>
      <point x="507" y="0"/>
      <point x="618" y="98"/>
      <point x="618" y="242" type="curve" smooth="yes"/>
      <point x="618" y="309"/>
      <point x="581" y="367"/>
      <point x="521" y="390" type="curve"/>
      <point x="521" y="395" type="line"/>
      <point x="593" y="422"/>
      <point x="638" y="496"/>
      <point x="638" y="569" type="curve" smooth="yes"/>
      <point x="638" y="686"/>
      <point x="518" y="728"/>
      <point x="410" y="728" type="curve" smooth="yes"/>
    </contour>
  </outline>
</glyph>
<glyph name="acircumflex" format="1">
  <advance width="628"/>
  <unicode hex="00E2"/>
  <outline>
    <contour>
      <point x="86" y="521"/>
      <point x="17" y="337"/>
      <point x="17" y="193" type="curve" smooth="yes"/>
      <point x="17" y="81"/>
      <point x="64" y="-10"/>
      <point x="188" y="-10" type="curve" smooth="yes"/>
      <point x="245" y="-10"/>
      <point x="302" y="24"/>
      <point x="337" y="68" type="curve"/>
      <point x="353" y="0"/>
      <point x="413" y="-10"/>
      <point x="473" y="-10" type="curve" smooth="yes"/>
      <point x="505" y="-10"/>
      <point x="547" y="-2"/>
      <point x="576" y="13" type="curve"/>
      <point x="591" y="123" type="line"/>
      <point x="580" y="116"/>
      <point x="567" y="110"/>
      <point x="554" y="110" type="curve" smooth="yes"/>
      <point x="535" y="110"/>
      <point x="528" y="122"/>
      <point x="528" y="137" type="curve" smooth="yes"/>
      <point x="528" y="169"/>
      <point x="553" y="344"/>
      <point x="581" y="511" type="curve"/>
      <point x="432" y="511" type="line"/>
      <point x="398" y="450" type="line"/>
      <point x="393" y="450" type="line"/>
      <point x="364" y="497"/>
      <point x="310" y="521"/>
      <point x="257" y="521" type="curve" smooth="yes"/>
    </contour>
    <contour>
      <point x="337" y="396"/>
      <point x="359" y="377"/>
      <point x="359" y="338" type="curve" smooth="yes"/>
      <point x="359" y="329"/>
      <point x="353" y="290"/>
      <point x="348" y="253" type="curve" smooth="yes"/>
      <point x="338" y="181" type="line" smooth="yes"/>
      <point x="332" y="142"/>
      <point x="309" y="111"/>
      <point x="266" y="111" type="curve" smooth="yes"/>
      <point x="235" y="111"/>
      <point x="213" y="135"/>
      <point x="213" y="170" type="curve" smooth="yes"/>
      <point x="213" y="174"/>
      <point x="213" y="178"/>
      <point x="234" y="326" type="curve" smooth="yes"/>
      <point x="239" y="365"/>
      <point x="269" y="396"/>
      <point x="306" y="396" type="curve" smooth="yes"/>
    </contour>
    <contour>
      <point x="308" y="720" type="line"/>
      <point x="148" y="575" type="line"/>
      <point x="276" y="575" type="line"/>
      <point x="361" y="652" type="line"/>
      <point x="424" y="575" type="line"/>
      <point x="554" y="575" type="line"/>
      <point x="436" y="720" type="line"/>
    </contour>
  </outline>
</glyph>
<glyph name="ae" format="1">
  <advance width="924"/>
  <unicode hex="00E6"/>
  <outline>
    <contour>
      <point x="656" y="521" type="line" smooth="yes"/>
      <point x="599" y="521"/>
      <point x="547" y="510"/>
      <point x="500" y="487" type="curve"/>
      <point x="464" y="508"/>
      <point x="413" y="521"/>
      <point x="344" y="521" type="curve" smooth="yes"/>
      <point x="311" y="521" type="line" smooth="yes"/>
      <point x="156" y="521"/>
      <point x="48" y="445"/>
      <point x="48" y="354" type="curve"/>
      <point x="238" y="354" type="line"/>
      <point x="239" y="358" type="line" smooth="yes"/>
      <point x="242" y="386"/>
      <point x="281" y="405"/>
      <point x="310" y="405" type="curve" smooth="yes"/>
      <point x="342" y="405"/>
      <point x="367" y="388"/>
      <point x="367" y="356" type="curve" smooth="yes"/>
      <point x="367" y="351"/>
      <point x="365" y="342"/>
      <point x="364" y="333" type="curve" smooth="yes"/>
      <point x="362" y="316" type="line"/>
      <point x="146" y="316"/>
      <point x="1" y="281"/>
      <point x="1" y="114" type="curve" smooth="yes"/>
      <point x="1" y="5"/>
      <point x="99" y="-10"/>
      <point x="175" y="-10" type="curve" smooth="yes"/>
      <point x="263" y="-10"/>
      <point x="344" y="18"/>
      <point x="395" y="58" type="curve"/>
      <point x="439" y="14"/>
      <point x="507" y="-10"/>
      <point x="588" y="-10" type="curve" smooth="yes"/>
      <point x="603" y="-10" type="line" smooth="yes"/>
      <point x="760" y="-10"/>
      <point x="865" y="79"/>
      <point x="881" y="192" type="curve"/>
      <point x="698" y="192" type="line"/>
      <point x="691" y="143"/>
      <point x="662" y="111"/>
      <point x="614" y="111" type="curve" smooth="yes"/>
      <point x="575" y="111"/>
      <point x="546" y="131"/>
      <point x="546" y="170" type="curve" smooth="yes"/>
      <point x="546" y="175"/>
      <point x="546" y="178"/>
      <point x="547" y="181" type="curve" smooth="yes"/>
      <point x="554" y="229" type="line"/>
      <point x="887" y="229" type="line"/>
      <point x="892" y="266"/>
      <point x="895" y="288"/>
      <point x="896" y="303" type="curve" smooth="yes"/>
      <point x="898" y="330" type="line"/>
      <point x="898" y="443"/>
      <point x="824" y="521"/>
      <point x="681" y="521" type="curve" smooth="yes"/>
    </contour>
    <contour>
      <point x="343" y="181" type="line" smooth="yes"/>
      <point x="337" y="138"/>
      <point x="300" y="111"/>
      <point x="265" y="111" type="curve" smooth="yes"/>
      <point x="238" y="111"/>
      <point x="211" y="118"/>
      <point x="211" y="149" type="curve" smooth="yes"/>
      <point x="211" y="192"/>
      <point x="249" y="225"/>
      <point x="349" y="225" type="curve"/>
    </contour>
    <contour>
      <point x="682" y="400"/>
      <point x="706" y="374"/>
      <point x="706" y="339" type="curve" smooth="yes"/>
      <point x="706" y="333"/>
      <point x="704" y="325"/>
      <point x="704" y="316" type="curve"/>
      <point x="566" y="316" type="line"/>
      <point x="568" y="330" type="line" smooth="yes"/>
      <point x="573" y="369"/>
      <point x="605" y="400"/>
      <point x="647" y="400" type="curve" smooth="yes"/>
    </contour>
    <contour>
      <point x="502" y="511" type="move" name="top"/>
    </contour>
  </outline>
</glyph>
<glyph name="ccedilla" format="1">
  <advance width="568"/>
  <unicode hex="00E7"/>
  <outline>
    <contour>
      <point x="123" y="521"/>
      <point x="16" y="374"/>
      <point x="16" y="198" type="curve" smooth="yes"/>
      <point x="16" y="89"/>
      <point x="94" y="-10"/>
      <point x="264" y="-10" type="curve" smooth="yes"/>
      <point x="409" y="-10"/>
      <point x="512" y="68"/>
      <point x="533" y="207" type="curve"/>
      <point x="375" y="207" type="line"/>
      <point x="371" y="181" type="line" smooth="yes"/>
      <point x="366" y="150"/>
      <point x="343" y="111"/>
      <point x="288" y="111" type="curve" smooth="yes"/>
      <point x="245" y="111"/>
      <point x="221" y="136"/>
      <point x="221" y="171" type="curve" smooth="yes"/>
      <point x="221" y="187"/>
      <point x="230" y="260"/>
      <point x="243" y="330" type="curve"/>
      <point x="248" y="369"/>
      <point x="275" y="400"/>
      <point x="322" y="400" type="curve" smooth="yes"/>
      <point x="357" y="400"/>
      <point x="381" y="374"/>
      <point x="381" y="339" type="curve" smooth="yes"/>
      <point x="381" y="333"/>
      <point x="378" y="318"/>
      <point x="378" y="304" type="curve"/>
      <point x="546" y="304" type="line"/>
      <point x="548" y="316"/>
      <point x="549" y="328"/>
      <point x="549" y="340" type="curve" smooth="yes"/>
      <point x="549" y="411"/>
      <point x="513" y="521"/>
      <point x="326" y="521" type="curve" smooth="yes"/>
    </contour>
    <contour>
      <point x="228" y="-17" type="line"/>
      <point x="220" y="-76" type="line"/>
      <point x="238" y="-76" type="line" smooth="yes"/>
      <point x="263" y="-76"/>
      <point x="272" y="-85"/>
      <point x="272" y="-100" type="curve" smooth="yes"/>
      <point x="272" y="-129"/>
      <point x="254" y="-139"/>
      <point x="227" y="-139" type="curve" smooth="yes"/>
      <point x="183" y="-139"/>
      <point x="157" y="-120"/>
      <point x="147" y="-107" type="curve"/>
      <point x="107" y="-161" type="line"/>
      <point x="134" y="-185"/>
      <point x="181" y="-197"/>
      <point x="228" y="-197" type="curve" smooth="yes"/>
      <point x="270" y="-197"/>
      <point x="359" y="-180"/>
      <point x="359" y="-100" type="curve" smooth="yes"/>
      <point x="359" y="-92" type="line" smooth="yes"/>
      <point x="359" y="-32"/>
      <point x="303" y="-17"/>
      <point x="249" y="-17" type="curve" smooth="yes"/>
    </contour>
  </outline>
</glyph>
<glyph name="idieresis" format="1">
  <advance width="296"/>
  <unicode hex="00EF"/>
  <outline>
    <contour>
      <point x="80" y="511" type="line"/>
      <point x="9" y="0" type="line"/>
      <point x="206" y="0" type="line"/>
      <point x="277" y="511" type="line"/>
    </contour>
    <contour>
      <point x="22" y="720" type="line"/>
      <point x="1" y="573" type="line"/>
      <point x="153" y="573" type="line"/>
      <point x="174" y="720" type="line"/>
    </contour>
    <contour>
      <point x="242" y="720" type="line"/>
      <point x="221" y="573" type="line"/>
      <point x="373" y="573" type="line"/>
      <point x="394" y="720" type="line"/>
    </contour>
  </outline>
</glyph>
<glyph name="ntilde" format="1">
  <advance width="597"/>
  <unicode hex="00F1"/>
  <outline>
    <contour>
      <point x="303" y="521"/>
      <point x="254" y="458"/>
      <point x="238" y="437" type="curve"/>
      <point x="229" y="511" type="line"/>
      <point x="80" y="511" type="line"/>
      <point x="8" y="0" type="line"/>
      <point x="206" y="0" type="line"/>
      <point x="251" y="320" type="line" smooth="yes"/>
      <point x="256" y="353"/>
      <point x="277" y="380"/>
      <point x="312" y="380" type="curve" smooth="yes"/>
      <point x="343" y="380"/>
      <point x="358" y="358"/>
      <point x="358" y="330" type="curve" smooth="yes"/>
      <point x="358" y="306"/>
      <point x="332" y="151"/>
      <point x="312" y="0" type="curve"/>
      <point x="510" y="0" type="line"/>
      <point x="521" y="68"/>
      <point x="528" y="130"/>
      <point x="536" y="185" type="curve" smooth="yes"/>
      <point x="546" y="255" type="line" smooth="yes"/>
      <point x="556" y="324"/>
      <point x="563" y="380"/>
      <point x="563" y="392" type="curve" smooth="yes"/>
      <point x="563" y="465"/>
      <point x="515" y="521"/>
      <point x="419" y="521" type="curve" smooth="yes"/>
    </contour>
    <contour>
      <point x="494" y="720" type="line"/>
      <point x="483" y="697"/>
      <point x="463" y="680"/>
      <point x="438" y="680" type="curve" smooth="yes"/>
      <point x="384" y="680"/>
      <point x="335" y="720"/>
      <point x="271" y="720" type="curve" smooth="yes"/>
      <point x="186" y="720"/>
      <point x="122" y="649"/>
      <point x="111" y="577" type="curve"/>
      <point x="191" y="577" type="line"/>
      <point x="202" y="600"/>
      <point x="222" y="617"/>
      <point x="247" y="617" type="curve" smooth="yes"/>
      <point x="300" y="617"/>
      <point x="350" y="577"/>
      <point x="414" y="577" type="curve" smooth="yes"/>
      <point x="501" y="577"/>
      <point x="564" y="648"/>
      <point x="575" y="720" type="curve"/>
    </contour>
  </outline>
</glyph>
<glyph name="ograve" format="1">
  <advance width="613"/>
  <unicode hex="00F2"/>
  <outline>
    <contour>
      <point x="323" y="521" type="line" smooth="yes"/>
      <point x="111" y="521"/>
      <point x="16" y="354"/>
      <point x="16" y="205" type="curve" smooth="yes"/>
      <point x="16" y="77"/>
      <point x="102" y="-10"/>
      <point x="265" y="-10" type="curve" smooth="yes"/>
      <point x="280" y="-10" type="line" smooth="yes"/>
      <point x="461" y="-10"/>
      <point x="587" y="123"/>
      <point x="587" y="305" type="curve" smooth="yes"/>
      <point x="587" y="435"/>
      <point x="500" y="521"/>
      <point x="340" y="521" type="curve" smooth="yes"/>
    </contour>
    <contour>
      <point x="359" y="400"/>
      <point x="382" y="370"/>
      <point x="382" y="339" type="curve"/>
      <point x="381" y="331"/>
      <point x="376" y="291"/>
      <point x="371" y="254" type="curve" smooth="yes"/>
      <point x="360" y="181" type="line" smooth="yes"/>
      <point x="354" y="142"/>
      <point x="324" y="111"/>
      <point x="281" y="111" type="curve" smooth="yes"/>
      <point x="246" y="111"/>
      <point x="221" y="136"/>
      <point x="221" y="171" type="curve" smooth="yes"/>
      <point x="221" y="181"/>
      <point x="231" y="256"/>
      <point x="243" y="330" type="curve" smooth="yes"/>
      <point x="249" y="369"/>
      <point x="281" y="400"/>
      <point x="322" y="400" type="curve" smooth="yes"/>
    </contour>
    <contour>
      <point x="178" y="720" type="line"/>
      <point x="175" y="717" type="line"/>
      <point x="281" y="575" type="line"/>
      <point x="399" y="575" type="line"/>
      <point x="329" y="720" type="line"/>
    </contour>
  </outline>
</glyph>
<glyph name="lslash" format="1">
  <advance width="346"/>
  <unicode hex="0142"/>
  <outline>
    <contour>
      <point x="134" y="720" type="line"/>
      <point x="88" y="389" type="line"/>
      <point x="25" y="360" type="line"/>
      <point x="11" y="255" type="line"/>
      <point x="73" y="285" type="line"/>
      <point x="34" y="0" type="line"/>
      <point x="231" y="0" type="line"/>
      <point x="285" y="384" type="line"/>
      <point x="350" y="414" type="line"/>
      <point x="365" y="519" type="line"/>
      <point x="299" y="488" type="line"/>
      <point x="332" y="720" type="line"/>
    </contour>
  </outline>
</glyph>
<glyph name="oe" format="1">
  <advance width="943"/>
  <unicode hex="0153"/>
  <outline>
    <contour>
      <point x="675" y="521" type="line" smooth="yes"/>
      <point x="609" y="521"/>
      <point x="551" y="507"/>
      <point x="502" y="478" type="curve"/>
      <point x="461" y="505"/>
      <point x="408" y="521"/>
      <point x="340" y="521" type="curve" smooth="yes"/>
      <point x="323" y="521" type="line" smooth="yes"/>
      <point x="111" y="521"/>
      <point x="16" y="354"/>
      <point x="16" y="205" type="curve" smooth="yes"/>
      <point x="16" y="77"/>
      <point x="102" y="-10"/>
      <point x="265" y="-10" type="curve" smooth="yes"/>
      <point x="280" y="-10" type="line" smooth="yes"/>
      <point x="343" y="-10"/>
      <point x="397" y="6"/>
      <point x="444" y="33" type="curve"/>
      <point x="487" y="4"/>
      <point x="541" y="-10"/>
      <point x="607" y="-10" type="curve" smooth="yes"/>
      <point x="622" y="-10" type="line" smooth="yes"/>
      <point x="779" y="-10"/>
      <point x="884" y="79"/>
      <point x="900" y="192" type="curve"/>
      <point x="717" y="192" type="line"/>
      <point x="710" y="143"/>
      <point x="681" y="111"/>
      <point x="633" y="111" type="curve" smooth="yes"/>
      <point x="594" y="111"/>
      <point x="565" y="131"/>
      <point x="565" y="170" type="curve"/>
      <point x="564" y="175"/>
      <point x="567" y="191"/>
      <point x="569" y="204" type="curve" smooth="yes"/>
      <point x="573" y="229" type="line"/>
      <point x="906" y="229" type="line"/>
      <point x="911" y="266"/>
      <point x="914" y="288"/>
      <point x="915" y="303" type="curve" smooth="yes"/>
      <point x="916" y="320" type="line"/>
      <point x="917" y="323"/>
      <point x="917" y="327"/>
      <point x="917" y="330" type="curve" smooth="yes"/>
      <point x="917" y="443"/>
      <point x="843" y="521"/>
      <point x="700" y="521" type="curve" smooth="yes"/>
    </contour>
    <contour>
      <point x="359" y="400"/>
      <point x="382" y="370"/>
      <point x="382" y="339" type="curve"/>
      <point x="381" y="331"/>
      <point x="376" y="291"/>
      <point x="371" y="254" type="curve" smooth="yes"/>
      <point x="360" y="181" type="line" smooth="yes"/>
      <point x="354" y="142"/>
      <point x="324" y="111"/>
      <point x="281" y="111" type="curve" smooth="yes"/>
      <point x="246" y="111"/>
      <point x="221" y="136"/>
      <point x="221" y="171" type="curve" smooth="yes"/>
      <point x="221" y="181"/>
      <point x="231" y="256"/>
      <point x="243" y="330" type="curve" smooth="yes"/>
      <point x="249" y="369"/>
      <point x="281" y="400"/>
      <point x="322" y="400" type="curve" smooth="yes"/>
    </contour>
    <contour>
      <point x="701" y="400"/>
      <point x="725" y="374"/>
      <point x="725" y="339" type="curve" smooth="yes"/>
      <point x="725" y="327"/>
      <point x="723" y="320"/>
      <point x="723" y="316" type="curve"/>
      <point x="585" y="316" type="line"/>
      <point x="587" y="330" type="line" smooth="yes"/>
      <point x="592" y="369"/>
      <point x="626" y="400"/>
      <point x="666" y="400" type="curve" smooth="yes"/>
    </contour>
    <contour>
      <point x="472" y="511" type="move" name="top"/>
    </contour>
  </outline>
</glyph>
<glyph name="Ydieresis" format="1">
  <advance width="644"/>
  <unicode hex="0178"/>
  <outline>
    <contour>
      <point x="493" y="686" type="line"/>
      <point x="356" y="461" type="line"/>
      <point x="351" y="461" type="line"/>
      <point x="280" y="686" type="line"/>
      <point x="44" y="686" type="line"/>
      <point x="212" y="262" type="line"/>
      <point x="175" y="0" type="line"/>
      <point x="384" y="0" type="line"/>
      <point x="421" y="262" type="line"/>
      <point x="708" y="686" type="line"/>
    </contour>
    <contour>
      <point x="220" y="897" type="line"/>
      <point x="199" y="750" type="line"/>
      <point x="351" y="750" type="line"/>
      <point x="372" y="897" type="line"/>
    </contour>
    <contour>
      <point x="440" y="897" type="line"/>
      <point x="419" y="750" type="line"/>
      <point x="571" y="750" type="line"/>
      <point x="592" y="897" type="line"/>
    </contour>
  </outline>
</glyph>
<glyph name="zcaron" format="1">
  <advance width="497"/>
  <unicode hex="017E"/>
  <outline>
    <contour>
      <point x="63" y="511" type="line"/>
      <point x="46" y="387" type="line"/>
      <point x="223" y="387" type="line"/>
      <point x="-10" y="63" type="line"/>
      <point x="-18" y="0" type="line"/>
      <point x="433" y="0" type="line"/>
      <point x="450" y="124" type="line"/>
      <point x="253" y="124" type="line"/>
      <point x="488" y="451" type="line"/>
      <point x="496" y="511" type="line"/>
    </contour>
    <contour>
      <point x="383" y="720" type="line"/>
      <point x="298" y="643" type="line"/>
      <point x="235" y="720" type="line"/>
      <point x="105" y="720" type="line"/>
      <point x="223" y="575" type="line"/>
      <point x="351" y="575" type="line"/>
      <point x="511" y="720" type="line"/>
    </contour>
  </outline>
</glyph>
<glyph name="circumflex" format="1">
  <advance width="540"/>
  <unicode hex="02C6"/>
  <outline>
    <contour>
      <point x="214" y="720" type="line"/>
      <point x="54" y="575" type="line"/>
      <point x="182" y="575" type="line"/>
      <point x="267" y="652" type="line"/>
      <point x="330" y="575" type="line"/>
      <point x="460" y="575" type="line"/>
      <point x="342" y="720" type="line"/>
    </contour>
    <contour>
      <point x="257" y="511" type="move" name="_top"/>
    </contour>
  </outline>
</glyph>
<glyph name="caron" format="1">
  <advance width="540"/>
  <unicode hex="02C7"/>
  <outline>
    <contour>
      <point x="353" y="720" type="line"/>
      <point x="268" y="643" type="line"/>
      <point x="205" y="720" type="line"/>
      <point x="75" y="720" type="line"/>
      <point x="193" y="575" type="line"/>
      <point x="321" y="575" type="line"/>
      <point x="481" y="720" type="line"/>
    </contour>
    <contour>
      <point x="238" y="511" type="move" name="_top"/>
    </contour>
  </outline>
</glyph>
<glyph name="breve" format="1">
  <advance width="520"/>
  <unicode hex="02D8"/>
  <outline>
    <contour>
      <point x="358" y="737" type="line"/>
      <point x="358" y="726"/>
      <point x="314" y="699"/>
      <point x="260" y="699" type="curve" smooth="yes"/>
      <point x="207" y="699"/>
      <point x="164" y="726"/>
      <point x="164" y="737" type="curve"/>
      <point x="68" y="737" type="line"/>
      <point x="68" y="681"/>
      <point x="153" y="613"/>
      <point x="260" y="613" type="curve" smooth="yes"/>
      <point x="367" y="613"/>
      <point x="453" y="681"/>
      <point x="453" y="737" type="curve"/>
    </contour>
    <contour>
      <point x="241" y="511" type="move" name="_top"/>
    </contour>
  </outline>
</glyph>
<glyph name="dotaccent" format="1">
  <advance width="280"/>
  <unicode hex="02D9"/>
  <outline>
    <contour>
      <point x="108" y="736"/>
      <point x="73" y="701"/>
      <point x="73" y="660" type="curve" smooth="yes"/>
      <point x="73" y="628"/>
      <point x="97" y="604"/>
      <point x="129" y="604" type="curve" smooth="yes"/>
      <point x="170" y="604"/>
      <point x="207" y="639"/>
      <point x="207" y="679" type="curve" smooth="yes"/>
      <point x="207" y="711"/>
      <point x="184" y="736"/>
      <point x="149" y="736" type="curve" smooth="yes"/>
    </contour>
    <contour>
      <point x="120" y="511" type="move" name="_top"/>
    </contour>
  </outline>
</glyph>
<glyph name="endash" format="1">
  <advance width="597"/>
  <unicode hex="2013"/>
  <outline>
    <contour>
      <point x="57" y="354" type="line"/>
      <point x="35" y="196" type="line"/>
      <point x="534" y="196" type="line"/>
      <point x="557" y="354" type="line"/>
    </contour>
  </outline>
</glyph>
<glyph name="quoteright" format="1">
  <advance width="265"/>
  <unicode hex="2019"/>
  <outline>
    <contour>
      <point x="91" y="686" type="line"/>
      <point x="65" y="503" type="line"/>
      <point x="149" y="503" type="line"/>
      <point x="89" y="338" type="line"/>
      <point x="183" y="338" type="line"/>
      <point x="259" y="525" type="line"/>
      <point x="282" y="686" type="line"/>
    </contour>
  </outline>
</glyph>
<glyph name="bullet" format="1">
  <advance width="600"/>
  <unicode hex="2022"/>
  <outline>
    <contour>
      <point x="227" y="514"/>
      <point x="134" y="425"/>
      <point x="134" y="317" type="curve" smooth="yes"/>
      <point x="134" y="233"/>
      <point x="196" y="171"/>
      <point x="282" y="171" type="curve" smooth="yes"/>
      <point x="372" y="171"/>
      <point x="481" y="244"/>
      <point x="481" y="367" type="curve" smooth="yes"/>
      <point x="481" y="450"/>
      <point x="419" y="514"/>
      <point x="331" y="514" type="curve" smooth="yes"/>
    </contour>
  </outline>
</glyph>
<glyph name="perthousand" format="1">
  <advance width="1058"/>
  <unicode hex="2030"/>
  <outline>
    <contour>
      <point x="578" y="686" type="line"/>
      <point x="62" y="0" type="line"/>
      <point x="157" y="0" type="line"/>
      <point x="671" y="686" type="line"/>
    </contour>
    <contour>
      <point x="229" y="615"/>
      <point x="241" y="601"/>
      <point x="241" y="582" type="curve"/>
      <point x="240" y="575"/>
      <point x="237" y="543"/>
      <point x="232" y="511" type="curve" smooth="yes"/>
      <point x="223" y="449" type="line" smooth="yes"/>
      <point x="220" y="426"/>
      <point x="202" y="410"/>
      <point x="181" y="410" type="curve" smooth="yes"/>
      <point x="162" y="410"/>
      <point x="148" y="424"/>
      <point x="148" y="443" type="curve" smooth="yes"/>
      <point x="148" y="446"/>
      <point x="148" y="448"/>
      <point x="167" y="576" type="curve" smooth="yes"/>
      <point x="170" y="599"/>
      <point x="190" y="615"/>
      <point x="210" y="615" type="curve" smooth="yes"/>
    </contour>
    <contour>
      <point x="209" y="686" type="line" smooth="yes"/>
      <point x="131" y="686"/>
      <point x="77" y="631"/>
      <point x="68" y="563" type="curve" smooth="yes"/>
      <point x="54" y="461" type="line"/>
      <point x="53" y="458"/>
      <point x="53" y="455"/>
      <point x="53" y="452" type="curve" smooth="yes"/>
      <point x="53" y="443" type="line" smooth="yes"/>
      <point x="53" y="383"/>
      <point x="97" y="338"/>
      <point x="160" y="338" type="curve" smooth="yes"/>
      <point x="182" y="338" type="line" smooth="yes"/>
      <point x="262" y="338"/>
      <point x="312" y="393"/>
      <point x="323" y="461" type="curve"/>
      <point x="337" y="563" type="line"/>
      <point x="338" y="566"/>
      <point x="338" y="569"/>
      <point x="338" y="572" type="curve" smooth="yes"/>
      <point x="338" y="581" type="line" smooth="yes"/>
      <point x="338" y="641"/>
      <point x="294" y="686"/>
      <point x="231" y="686" type="curve" smooth="yes"/>
    </contour>
    <contour>
      <point x="572" y="276"/>
      <point x="584" y="262"/>
      <point x="584" y="243" type="curve"/>
      <point x="583" y="236"/>
      <point x="580" y="204"/>
      <point x="575" y="172" type="curve" smooth="yes"/>
      <point x="566" y="110" type="line" smooth="yes"/>
      <point x="563" y="87"/>
      <point x="545" y="71"/>
      <point x="524" y="71" type="curve" smooth="yes"/>
      <point x="505" y="71"/>
      <point x="491" y="85"/>
      <point x="491" y="104" type="curve" smooth="yes"/>
      <point x="491" y="107"/>
      <point x="491" y="109"/>
      <point x="510" y="237" type="curve" smooth="yes"/>
      <point x="513" y="260"/>
      <point x="533" y="276"/>
      <point x="553" y="276" type="curve" smooth="yes"/>
    </contour>
    <contour>
      <point x="552" y="347" type="line" smooth="yes"/>
      <point x="474" y="347"/>
      <point x="420" y="292"/>
      <point x="411" y="224" type="curve" smooth="yes"/>
      <point x="397" y="122" type="line"/>
      <point x="396" y="119"/>
      <point x="396" y="116"/>
      <point x="396" y="113" type="curve" smooth="yes"/>
      <point x="396" y="104" type="line" smooth="yes"/>
      <point x="396" y="44"/>
      <point x="440" y="-1"/>
      <point x="503" y="-1" type="curve" smooth="yes"/>
      <point x="525" y="-1" type="line" smooth="yes"/>
      <point x="605" y="-1"/>
      <point x="655" y="54"/>
      <point x="666" y="122" type="curve"/>
      <point x="680" y="224" type="line"/>
      <point x="681" y="227"/>
      <point x="681" y="230"/>
      <point x="681" y="233" type="curve" smooth="yes"/>
      <point x="681" y="242" type="line" smooth="yes"/>
      <point x="681" y="302"/>
      <point x="637" y="347"/>
      <point x="574" y="347" type="curve" smooth="yes"/>
    </contour>
    <contour>
      <point x="914" y="276"/>
      <point x="926" y="262"/>
      <point x="926" y="243" type="curve"/>
      <point x="925" y="236"/>
      <point x="922" y="204"/>
      <point x="917" y="172" type="curve" smooth="yes"/>
      <point x="908" y="110" type="line" smooth="yes"/>
      <point x="905" y="87"/>
      <point x="887" y="71"/>
      <point x="866" y="71" type="curve" smooth="yes"/>
      <point x="847" y="71"/>
      <point x="833" y="85"/>
      <point x="833" y="104" type="curve" smooth="yes"/>
      <point x="833" y="107"/>
      <point x="833" y="109"/>
      <point x="852" y="237" type="curve" smooth="yes"/>
      <point x="855" y="260"/>
      <point x="875" y="276"/>
      <point x="895" y="276" type="curve" smooth="yes"/>
    </contour>
    <contour>
      <point x="894" y="347" type="line" smooth="yes"/>
      <point x="816" y="347"/>
      <point x="762" y="292"/>
      <point x="753" y="224" type="curve" smooth="yes"/>
      <point x="739" y="122" type="line"/>
      <point x="738" y="119"/>
      <point x="738" y="116"/>
      <point x="738" y="113" type="curve" smooth="yes"/>
      <point x="738" y="104" type="line" smooth="yes"/>
      <point x="738" y="44"/>
      <point x="782" y="-1"/>
      <point x="845" y="-1" type="curve" smooth="yes"/>
      <point x="867" y="-1" type="line" smooth="yes"/>
      <point x="947" y="-1"/>
      <point x="997" y="54"/>
      <point x="1008" y="122" type="curve"/>
      <point x="1022" y="224" type="line"/>
      <point x="1023" y="227"/>
      <point x="1023" y="230"/>
      <point x="1023" y="233" type="curve" smooth="yes"/>
      <point x="1023" y="242" type="line" smooth="yes"/>
      <point x="1023" y="302"/>
      <point x="979" y="347"/>
      <point x="916" y="347" type="curve" smooth="yes"/>
    </contour>
  </outline>
</glyph>
<glyph name="guilsinglright" format="1">
  <advance width="262"/>
  <unicode hex="203A"/>
  <outline>
    <contour>
      <point x="68" y="511" type="line"/>
      <point x="129" y="337" type="line"/>
      <point x="19" y="163" type="line"/>
      <point x="93" y="163" type="line"/>
      <point x="238" y="337" type="line"/>
      <point x="142" y="511" type="line"/>
    </contour>
  </outline>
</glyph>
<glyph name="Euro" format="1">
  <advance width="597"/>
  <unicode hex="20AC"/>
  <outline>
    <contour>
      <point x="360" y="692"/>
      <point x="208" y="637"/>
      <point x="142" y="457" type="curve"/>
      <point x="52" y="457" type="line"/>
      <point x="39" y="365" type="line"/>
      <point x="117" y="365" type="line"/>
      <point x="110" y="317" type="line"/>
      <point x="32" y="317" type="line"/>
      <point x="19" y="225" type="line"/>
      <point x="109" y="225" type="line"/>
      <point x="128" y="43"/>
      <point x="264" y="-10"/>
      <point x="375" y="-10" type="curve" smooth="yes"/>
      <point x="428" y="-10"/>
      <point x="476" y="2"/>
      <point x="515" y="15" type="curve"/>
      <point x="538" y="182" type="line"/>
      <point x="511" y="167"/>
      <point x="476" y="156"/>
      <point x="444" y="156" type="curve" smooth="yes"/>
      <point x="401" y="156"/>
      <point x="344" y="169"/>
      <point x="320" y="225" type="curve"/>
      <point x="453" y="225" type="line"/>
      <point x="466" y="317" type="line"/>
      <point x="308" y="317" type="line"/>
      <point x="308" y="332"/>
      <point x="311" y="350"/>
      <point x="315" y="365" type="curve"/>
      <point x="473" y="365" type="line"/>
      <point x="486" y="457" type="line"/>
      <point x="349" y="457" type="line"/>
      <point x="389" y="518"/>
      <point x="443" y="532"/>
      <point x="485" y="532" type="curve" smooth="yes"/>
      <point x="529" y="532"/>
      <point x="566" y="522"/>
      <point x="585" y="514" type="curve"/>
      <point x="607" y="674" type="line"/>
      <point x="578" y="683"/>
      <point x="533" y="692"/>
      <point x="477" y="692" type="curve" smooth="yes"/>
    </contour>
  </outline>
</glyph>
<glyph name="uni2126" format="1">
  <advance width="765"/>
  <unicode hex="2126"/>
  <outline>
    <contour>
      <point x="410" y="694" type="line" smooth="yes"/>
      <point x="245" y="694"/>
      <point x="91" y="560"/>
      <point x="68" y="394" type="curve" smooth="yes"/>
      <point x="62" y="350" type="line" smooth="yes"/>
      <point x="61" y="339"/>
      <point x="60" y="329"/>
      <point x="60" y="318" type="curve" smooth="yes"/>
      <point x="60" y="251"/>
      <point x="89" y="194"/>
      <point x="138" y="142" type="curve"/>
      <point x="29" y="162" type="line"/>
      <point x="18" y="162" type="line"/>
      <point x="-4" y="0" type="line"/>
      <point x="300" y="0" type="line"/>
      <point x="312" y="85" type="line"/>
      <point x="281" y="98"/>
      <point x="263" y="128"/>
      <point x="263" y="163" type="curve" smooth="yes"/>
      <point x="263" y="170" type="line" smooth="yes"/>
      <point x="263" y="172"/>
      <point x="263" y="174"/>
      <point x="264" y="177" type="curve"/>
      <point x="301" y="440" type="line" smooth="yes"/>
      <point x="309" y="495"/>
      <point x="359" y="540"/>
      <point x="415" y="540" type="curve" smooth="yes"/>
      <point x="420" y="540" type="line" smooth="yes"/>
      <point x="471" y="540"/>
      <point x="507" y="502"/>
      <point x="507" y="453" type="curve" smooth="yes"/>
      <point x="507" y="443"/>
      <point x="496" y="375"/>
      <point x="488" y="308" type="curve"/>
      <point x="469" y="177" type="line" smooth="yes"/>
      <point x="463" y="134"/>
      <point x="432" y="100"/>
      <point x="394" y="85" type="curve"/>
      <point x="382" y="0" type="line"/>
      <point x="687" y="0" type="line"/>
      <point x="709" y="162" type="line"/>
      <point x="698" y="162" type="line"/>
      <point x="583" y="142" type="line"/>
      <point x="656" y="202"/>
      <point x="707" y="270"/>
      <point x="718" y="350" type="curve" smooth="yes"/>
      <point x="724" y="394" type="line" smooth="yes"/>
      <point x="726" y="408"/>
      <point x="727" y="422"/>
      <point x="727" y="436" type="curve" smooth="yes"/>
      <point x="727" y="582"/>
      <point x="618" y="694"/>
      <point x="466" y="694" type="curve" smooth="yes"/>
    </contour>
  </outline>
</glyph>
<glyph name="partialdiff" format="1">
  <advance width="621"/>
  <unicode hex="2202"/>
  <outline>
    <contour>
      <point x="213" y="696" type="line"/>
      <point x="192" y="546" type="line"/>
      <point x="334" y="546" type="line" smooth="yes"/>
      <point x="371" y="546"/>
      <point x="401" y="517"/>
      <point x="401" y="481" type="curve"/>
      <point x="388" y="385" type="line"/>
      <point x="359" y="422"/>
      <point x="308" y="437"/>
      <point x="271" y="437" type="curve" smooth="yes"/>
      <point x="139" y="437"/>
      <point x="15" y="354"/>
      <point x="15" y="194" type="curve" smooth="yes"/>
      <point x="15" y="70"/>
      <point x="110" y="-10"/>
      <point x="242" y="-10" type="curve" smooth="yes"/>
      <point x="270" y="-10" type="line" smooth="yes"/>
      <point x="433" y="-10"/>
      <point x="545" y="96"/>
      <point x="565" y="240" type="curve" smooth="yes"/>
      <point x="594" y="446" type="line" smooth="yes"/>
      <point x="595" y="452"/>
      <point x="596" y="458"/>
      <point x="596" y="464" type="curve" smooth="yes"/>
      <point x="596" y="482" type="line" smooth="yes"/>
      <point x="596" y="606"/>
      <point x="501" y="696"/>
      <point x="369" y="696" type="curve" smooth="yes"/>
    </contour>
    <contour>
      <point x="341" y="321"/>
      <point x="370" y="293"/>
      <point x="370" y="256" type="curve"/>
      <point x="363" y="205" type="line" smooth="yes"/>
      <point x="357" y="164"/>
      <point x="318" y="130"/>
      <point x="278" y="130" type="curve" smooth="yes"/>
      <point x="272" y="130" type="line" smooth="yes"/>
      <point x="233" y="130"/>
      <point x="206" y="158"/>
      <point x="206" y="194" type="curve" smooth="yes"/>
      <point x="206" y="199"/>
      <point x="206" y="202"/>
      <point x="207" y="205" type="curve" smooth="yes"/>
      <point x="213" y="246" type="line" smooth="yes"/>
      <point x="219" y="287"/>
      <point x="258" y="321"/>
      <point x="298" y="321" type="curve" smooth="yes"/>
      <point x="304" y="321" type="line" smooth="yes"/>
    </contour>
  </outline>
</glyph>
<glyph name="uni2206" format="1">
  <advance width="635"/>
  <unicode hex="2206"/>
  <outline>
    <contour>
      <point x="305" y="686" type="line"/>
      <point x="-1" y="93" type="line"/>
      <point x="-14" y="0" type="line"/>
      <point x="570" y="0" type="line"/>
      <point x="583" y="93" type="line"/>
      <point x="444" y="686" type="line"/>
    </contour>
    <contour>
      <point x="442" y="109" type="line"/>
      <point x="146" y="109" type="line"/>
      <point x="353" y="525" type="line"/>
    </contour>
  </outline>
</glyph>
<glyph name="product" format="1">
  <advance width="898"/>
  <unicode hex="220F"/>
  <outline>
    <contour>
      <point x="87" y="731" type="line"/>
      <point x="62" y="551" type="line"/>
      <point x="179" y="551" type="line"/>
      <point x="87" y="-101" type="line"/>
      <point x="301" y="-101" type="line"/>
      <point x="393" y="551" type="line"/>
      <point x="576" y="551" type="line"/>
      <point x="484" y="-101" type="line"/>
      <point x="699" y="-101" type="line"/>
      <point x="791" y="551" type="line"/>
      <point x="908" y="551" type="line"/>
      <point x="933" y="731" type="line"/>
    </contour>
  </outline>
</glyph>
<glyph name="summation" format="1">
  <advance width="711"/>
  <unicode hex="2211"/>
  <outline>
    <contour>
      <point x="102" y="731" type="line"/>
      <point x="83" y="593" type="line"/>
      <point x="287" y="312" type="line"/>
      <point x="-10" y="17" type="line"/>
      <point x="-27" y="-101" type="line"/>
      <point x="627" y="-101" type="line"/>
      <point x="652" y="80" type="line"/>
      <point x="284" y="80" type="line"/>
      <point x="285" y="85" type="line"/>
      <point x="538" y="337" type="line"/>
      <point x="376" y="552" type="line"/>
      <point x="376" y="556" type="line"/>
      <point x="693" y="556" type="line"/>
      <point x="718" y="731" type="line"/>
    </contour>
  </outline>
</glyph>
<glyph name="notequal" format="1">
  <advance width="615"/>
  <unicode hex="2260"/>
  <outline>
    <contour>
      <point x="459" y="511" type="line"/>
      <point x="392" y="429" type="line"/>
      <point x="71" y="429" type="line"/>
      <point x="53" y="301" type="line"/>
      <point x="287" y="301" type="line"/>
      <point x="211" y="209" type="line"/>
      <point x="40" y="209" type="line"/>
      <point x="22" y="81" type="line"/>
      <point x="105" y="81" type="line"/>
      <point x="39" y="0" type="line"/>
      <point x="150" y="0" type="line"/>
      <point x="216" y="81" type="line"/>
      <point x="534" y="81" type="line"/>
      <point x="552" y="209" type="line"/>
      <point x="320" y="209" type="line"/>
      <point x="396" y="301" type="line"/>
      <point x="565" y="301" type="line"/>
      <point x="583" y="429" type="line"/>
      <point x="500" y="429" type="line"/>
      <point x="567" y="511" type="line"/>
    </contour>
  </outline>
</glyph>
<glyph name="lessequal" format="1">
  <advance width="615"/>
  <unicode hex="2264"/>
  <outline>
    <contour>
      <point x="69" y="403" type="line"/>
      <point x="49" y="264" type="line"/>
      <point x="542" y="148" type="line"/>
      <point x="561" y="286" type="line"/>
      <point x="220" y="333" type="line"/>
      <point x="575" y="381" type="line"/>
      <point x="594" y="520" type="line"/>
    </contour>
    <contour>
      <point x="28" y="128" type="line"/>
      <point x="10" y="0" type="line"/>
      <point x="521" y="0" type="line"/>
      <point x="539" y="128" type="line"/>
    </contour>
  </outline>
</glyph>
